<?xml version="1.0" encoding="utf-8"?>
<!-- Generator: Adobe Illustrator 20.1.0, SVG Export Plug-In . SVG Version: 6.00 Build 0)  -->
<svg version="1.1" xmlns="http://www.w3.org/2000/svg" xmlns:xlink="http://www.w3.org/1999/xlink" x="0px" y="0px"
	 viewBox="0 0 652.1 177.3" style="enable-background:new 0 0 652.1 177.3;" xml:space="preserve">
<style type="text/css">
	.st0{fill:#DDDDDD;stroke:#FFFFFF;stroke-miterlimit:10;}
	.st1{fill:#DDDDDD;}
	.st2{fill:#F0818E;}
	.st3{fill:#3C59A5;}
	.st4{fill:#98CFB8;}
</style>
<g id="Layer_2_1_">
	<rect x="33" y="94.5" class="st0" width="69.7" height="13.4"/>
	<rect x="186.9" y="124.9" class="st0" width="72.4" height="11.9"/>
	<ellipse class="st1" cx="17.3" cy="160.6" rx="15.8" ry="13.4"/>
	
		<ellipse transform="matrix(5.025551e-02 -0.9987 0.9987 5.025551e-02 -41.4494 267.1177)" class="st1" cx="119.7" cy="155.4" rx="19" ry="14.8"/>
	<ellipse class="st1" cx="167.1" cy="156.4" rx="13.7" ry="18"/>
	<rect x="173" y="124.9" class="st1" width="16" height="23.2"/>
	<rect x="168" y="142.8" class="st1" width="15" height="17.9"/>
	
		<rect x="180.9" y="140.2" transform="matrix(0.8452 0.5344 -0.5344 0.8452 108.1459 -74.9645)" class="st1" width="5.2" height="18.1"/>
	<ellipse class="st1" cx="285.4" cy="163" rx="14.6" ry="11.4"/>
	<ellipse class="st1" cx="295.3" cy="156.1" rx="3.4" ry="9.3"/>
	<polygon class="st1" points="208.6,98.8 199.8,98.8 199.8,54.4 226.5,63.1 	"/>
	<g>
		<path class="st1" d="M434.9,148.3c-7.5,9-16.7,16-27.5,20.9c-10.8,4.9-22,7.3-33.6,7.3c-11.2,0-21.7-2.1-31.5-6.4
			s-18.3-10.1-25.4-17.5c-7.2-7.4-12.8-16-17-25.9c-4.2-9.9-6.2-20.4-6.2-31.7s2.1-21.7,6.2-31.5c4.2-9.8,9.8-18.3,17-25.6
			c7.1-7.3,15.6-13.1,25.4-17.3s20.3-6.4,31.5-6.4c9.4,0,18.8,1.5,28.2,4.4c9.4,2.9,17.4,7.9,24.1,15c1.5,1.7,2.7,3.4,3.6,5.1
			c0.9,1.8,1.4,3.8,1.4,6.2c0,4-1.5,7.4-4.4,10.1c-2.9,2.7-6.3,4-10.2,4c-2.7,0-5.3-0.8-7.9-2.5c-2.6-1.7-5.5-3.5-8.7-5.4
			c-3.2-1.9-6.9-3.7-11-5.4c-4.2-1.7-9.2-2.5-15.1-2.5c-7.4,0-14.1,1.4-20.1,4.1c-6,2.8-11.2,6.5-15.4,11.2
			c-4.3,4.7-7.5,10.2-9.8,16.6c-2.2,6.4-3.4,13.1-3.4,20.1c0,7,1.1,13.7,3.4,20.1c2.3,6.4,5.5,11.9,9.8,16.7
			c4.3,4.8,9.4,8.6,15.4,11.4c6,2.9,12.7,4.3,20.1,4.3c7.4,0,13.5-1.2,18.3-3.6c4.9-2.4,9-5.1,12.5-8c3.4-2.9,6.5-5.6,9.2-8
			c2.7-2.4,5.6-3.6,8.8-3.6c2,0,3.9,0.5,5.8,1.4c1.8,0.9,3.5,2.1,5,3.5c1.5,1.4,2.7,3.1,3.5,4.9c0.8,1.9,1.2,3.8,1.2,5.8
			c0,1.9-0.3,3.4-0.9,4.7C436.7,145.6,435.9,146.9,434.9,148.3z"/>
	</g>
	<g>
		<path class="st1" d="M566.1,174.2c-2.5,0-4.9-0.6-7.2-1.9c-2.3-1.3-4.1-3-5.4-5.2L509.3,96c-4.9,4.9-9.8,9.7-14.8,14.6
			c-5,4.9-10,9.8-14.8,14.8v33.2c0,4.2-1.5,7.8-4.5,10.9c-3,3.1-6.7,4.7-11.1,4.7c-4.4,0-8.1-1.5-11.2-4.5c-3.1-3-4.6-6.7-4.6-11.1
			V29.3c0-4.4,1.6-8.1,4.6-11.2c3.1-3.1,6.8-4.7,11.2-4.7c4.4,0,8,1.6,11.1,4.7c3,3.1,4.5,6.8,4.5,11.2v55.3l68.2-66.9
			c2.8-2.8,6.2-4.3,10.1-4.3c4,0,7.5,1.5,10.3,4.4c2.8,2.9,4.3,6.3,4.3,10.2c0,4-1.5,7.5-4.5,10.6l-37,36.5l47.5,77
			c1.4,2.7,2,5.2,2,7.5c0,4-1.4,7.5-4.1,10.3C573.5,172.8,570.2,174.2,566.1,174.2z"/>
	</g>
	<g>
		<path class="st1" d="M646.6,68.7h-39.7c-1.5,0-2.8-0.5-3.7-1.6c-1-1.1-1.4-2.3-1.4-3.8c0-4.7,0.9-8.5,2.8-11.7
			c1.9-3.1,4.2-5.8,7-7.9c2.8-2.1,5.8-3.9,9.1-5.4c3.3-1.5,6.3-2.9,9.1-4.3c2.8-1.4,5.1-2.9,7-4.5c1.9-1.6,2.8-3.7,2.8-6.1
			c0-1.5-0.4-2.7-1.2-3.6c-0.8-0.9-1.9-1.7-3.1-2.2c-1.2-0.6-2.5-1-3.9-1.2c-1.4-0.2-2.7-0.3-3.8-0.3c-1.8,0-3.4,0.1-4.8,0.3
			c-1.4,0.2-2.7,0.4-4,0.8c-1.3,0.4-2.6,0.9-3.8,1.5c-1.3,0.6-2.7,1.4-4.2,2.2c-0.9,0.5-1.7,0.7-2.6,0.7c-1.4,0-2.7-0.5-3.8-1.4
			c-1.1-1-1.7-2.2-1.7-3.6c0-1.1,0.3-2,0.9-2.8c0.6-0.8,1.3-1.5,2-2.1c1.5-1.1,3.1-2.1,4.9-2.9c1.8-0.8,3.7-1.4,5.6-1.9
			s3.9-0.8,5.8-1c2-0.2,3.8-0.3,5.6-0.3c2.6,0,5.3,0.4,8.1,1.1c2.8,0.7,5.4,1.8,7.7,3.3c2.4,1.5,4.3,3.3,5.8,5.5
			c1.5,2.2,2.3,4.8,2.3,7.8s-0.5,5.6-1.4,7.7c-1,2.1-2.3,4-3.9,5.5c-1.7,1.6-3.6,2.9-5.8,4.1c-2.2,1.2-4.5,2.3-6.9,3.5
			c-1.2,0.6-2.8,1.4-4.8,2.3c-2,0.9-3.9,2-5.8,3.2c-1.9,1.2-3.5,2.5-4.8,3.9c-1.4,1.4-2,2.9-2,4.5h30.9c1.5,0,2.8,0.5,3.7,1.5
			c1,1,1.4,2.3,1.4,3.7c0,1.5-0.5,2.7-1.5,3.8C649.3,68.2,648.1,68.7,646.6,68.7z"/>
	</g>
</g>
<g id="Layer_1">
	<g id="Layer_1_1_">
		<g>
			<path class="st2" d="M117.7,162.3c-4.4,0-8.1-1.5-11.2-4.5s-4.6-6.7-4.6-11V94.5H31.4v52.2c0,4.4-1.5,8-4.6,11
				c-3,3-6.7,4.5-11.1,4.5s-8.1-1.5-11.1-4.5S0,151,0,146.7v-129c0-4.3,1.5-8.1,4.6-11.2c3-3.1,6.7-4.6,11.1-4.6s8.1,1.5,11.1,4.6
				s4.6,6.8,4.6,11.2v47.4h70.5V17.7c0-4.3,1.5-8.1,4.6-11.2s6.8-4.6,11.2-4.6c4.3,0,8,1.5,11,4.6s4.5,6.8,4.5,11.2v129
				c0,4.4-1.5,8-4.5,11C125.8,160.8,122.1,162.3,117.7,162.3z"/>
			<path class="st2" d="M279.1,162.3c-3,0-5.6-0.8-7.9-2.3s-4.1-3.5-5.4-6L253,125.1h-67.8l-13,28.9c-1.2,2.5-2.9,4.5-5.3,6
				c-2.3,1.5-4.9,2.3-7.8,2.3c-4.2,0-7.7-1.5-10.5-4.4s-4.3-6.4-4.3-10.4c0-1.7,0.4-3.6,1.3-5.8l60.2-131.3c1.2-2.3,2.9-4.3,5.1-6
				c2.3-1.7,4.8-2.5,7.7-2.5c2.8,0,5.5,0.7,8,2.1s4.4,3.6,5.8,6.4l59.7,131.3c0.8,2,1.3,4,1.3,6c0,4-1.4,7.4-4.3,10.3
				C286.3,160.8,283,162.3,279.1,162.3z M218.9,49.8l-21.9,49h44L218.9,49.8z"/>
			<path class="st2" d="M433.7,135.4c-7.5,9-16.7,16-27.5,20.8c-10.8,4.9-22,7.3-33.5,7.3c-11.2,0-21.7-2.1-31.5-6.4
				c-9.8-4.3-18.3-10.1-25.4-17.4c-7.1-7.4-12.8-16-16.9-25.9s-6.2-20.4-6.2-31.6s2.1-21.7,6.2-31.5s9.8-18.3,16.9-25.6
				S331.4,12,341.2,7.8s20.3-6.4,31.5-6.4c9.4,0,18.7,1.5,28.1,4.4s17.4,7.9,24.1,14.9c1.5,1.7,2.7,3.4,3.6,5.1
				c0.9,1.8,1.4,3.8,1.4,6.1c0,4-1.5,7.4-4.4,10c-2.9,2.7-6.3,4-10.2,4c-2.7,0-5.3-0.8-7.9-2.5s-5.5-3.5-8.7-5.4s-6.9-3.7-11-5.4
				c-4.2-1.7-9.2-2.5-15.1-2.5c-7.4,0-14.1,1.4-20.1,4.1c-6,2.8-11.2,6.5-15.4,11.2c-4.3,4.7-7.5,10.2-9.8,16.6s-3.4,13.1-3.4,20.1
				s1.1,13.7,3.4,20.1s5.5,11.9,9.8,16.7s9.4,8.6,15.4,11.4c6,2.8,12.7,4.3,20.1,4.3s13.5-1.2,18.3-3.6c4.9-2.4,9-5.1,12.4-8
				s6.5-5.6,9.2-8s5.6-3.6,8.8-3.6c2,0,3.9,0.5,5.8,1.4c1.8,0.9,3.5,2.1,5,3.5s2.7,3.1,3.5,4.9s1.3,3.8,1.3,5.8
				c0,1.8-0.3,3.4-0.9,4.6C435.5,132.8,434.7,134.1,433.7,135.4z"/>
			<path class="st2" d="M566.3,162.3c-2.5,0-4.9-0.6-7.2-1.9c-2.3-1.3-4.1-3-5.4-5.1l-44.2-71c-4.9,4.9-9.8,9.7-14.8,14.6
				s-10,9.8-14.8,14.8v33.1c0,4.2-1.5,7.8-4.5,10.9c-3,3.1-6.7,4.6-11,4.6c-4.4,0-8.1-1.5-11.2-4.5s-4.6-6.7-4.6-11v-129
				c0-4.3,1.5-8.1,4.6-11.2S460,2,464.4,2c4.3,0,8,1.5,11,4.6s4.5,6.8,4.5,11.2V73l68-66.8c2.8-2.8,6.2-4.3,10-4.3
				c4,0,7.4,1.5,10.3,4.4c2.8,2.9,4.3,6.3,4.3,10.2c0,4-1.5,7.5-4.5,10.5l-36.9,36.4l47.4,76.8c1.3,2.7,2,5.2,2,7.5
				c0,4-1.4,7.4-4.1,10.3C573.7,160.8,570.3,162.3,566.3,162.3z"/>
		</g>
		<g>
			<path class="st3" d="M119.2,1.1c4.8,0,8.9,1.7,12.1,5c3.2,3.3,4.9,7.4,4.9,12.2v12.2v116.2v12.2c0,4.8-1.6,8.9-4.9,12.2
				c-3.2,3.3-7.3,5-12.1,5c-4.8,0-8.9-1.7-12.2-5c-3.3-3.3-5-7.4-5-12.2v-12.2v-38.2H34.4v38.2v12.2c0,4.8-1.6,8.9-4.9,12.2
				c-3.2,3.3-7.3,5-12.1,5s-8.9-1.7-12.2-5s-5-7.4-5-12.2v-12.2V30.6V18.3c0-4.8,1.7-8.9,5-12.2s7.4-5,12.2-5s8.9,1.7,12.1,5
				s4.9,7.4,4.9,12.2v12.2V64h67.5V30.6V18.3c0-4.8,1.7-8.9,5-12.2C110.3,2.8,114.3,1.1,119.2,1.1z M133.2,18.3c0-4-1.4-7.3-4.1-10
				c-2.8-2.7-6-4-9.9-4c-3.8,0-7.1,1.4-9.9,4.1s-4.1,6-4.1,9.9v12.2V67H31.4V30.6V18.3c0-4-1.4-7.3-4.1-10c-2.8-2.7-6-4-9.9-4
				c-3.8,0-7.1,1.4-9.9,4.1s-4.1,6-4.1,9.9v12.2v116.2c0,3.8,1.4,7.1,4.1,9.9s6,4.1,9.9,4.1c3.8,0,7.1-1.4,9.9-4.1s4.1-6,4.1-9.9
				v-41.2V93.3h73.8v12.2v41.2c0,3.8,1.4,7.1,4.1,9.9s6,4.1,9.9,4.1c3.8,0,7.1-1.4,9.9-4.1s4.1-6,4.1-9.9V30.6L133.2,18.3
				L133.2,18.3z M31.4,156.6c-3.2,4.8-7.8,7.2-14,7.2c-3.5,0-6.7-0.9-9.5-2.8c0.5,0.5,1.1,0.9,1.8,1.2c1.2,0.8,2.3,1.5,3.5,2
				c0.7,0.3,1.3,0.6,2,0.8s1.3,0.3,2,0.5c-0.7,0.2-1.3,0.2-2,0.1c-0.7-0.1-1.4-0.2-2.2-0.4c-1.3-0.2-2.8-0.7-4.2-1.5l-1.5-0.8
				c0.5,0.8,1.2,1.5,2.2,2c1,1,2.2,1.8,3.5,2.2c1.3,0.8,2.8,1.2,4.2,1.2c-0.8,0.2-1.6,0.2-2.2,0.1c-0.7-0.1-1.4-0.2-2.2-0.4
				s-1.6-0.4-2.2-0.8c-0.7-0.3-1.3-0.7-2-1s-1.1-0.6-1.2-0.8c0.7,1,1.2,1.7,1.8,2c0.7,0.5,1.3,1,1.9,1.4c0.6,0.4,1.2,0.8,1.9,1.1
				c1.7,0.8,3.2,1.2,4.5,1.2c-1.8,0.3-3.4,0.2-4.8-0.2c-0.8-0.2-1.6-0.4-2.2-0.8c-0.7-0.3-1.3-0.7-2-1c2.7,2.3,5.8,3.5,9.2,3.5
				c3.8,0,7.1-1.4,9.9-4.1s4.1-6,4.1-9.9v-2H31.4z M101.9,96.3H37.4l-2,0.2L56.9,98l-21,1.5l23.5,1.5l-23,1.2l25.2,1.5l-24.8,1.5
				l3.8,0.2h61.2L101.9,96.3L101.9,96.3z M133.2,156.6c-3.5,4.8-8.2,7.2-14,7.2c-3.8,0-7.1-1-9.8-3c0.8,0.8,1.4,1.3,1.8,1.5
				c0.7,0.3,1.2,0.7,1.8,1c0.5,0.3,1.1,0.7,1.8,1c0.8,0.3,1.5,0.6,2.1,0.8s1.3,0.3,2.1,0.5c-1.2,0.2-2.6,0.1-4.2-0.2
				c-1.7-0.3-3.1-0.8-4.2-1.5c-0.5-0.2-1.1-0.4-1.8-0.8c1,1,1.8,1.7,2.2,2c1,1,2.2,1.8,3.5,2.2c1.7,0.8,3.2,1.2,4.5,1.2
				c-0.8,0.2-1.6,0.2-2.4,0.1c-0.8-0.1-1.5-0.2-2.4-0.4c-0.8-0.2-1.6-0.4-2.2-0.8c-0.7-0.3-1.3-0.7-2-1c-0.3-0.2-0.5-0.3-0.6-0.4
				c-0.1-0.1-0.3-0.2-0.6-0.4c0.5,0.8,1.2,1.5,2,2c1.2,1.2,2.3,2,3.5,2.5c1.7,0.8,3.2,1.2,4.5,1.2c-1.8,0.3-3.4,0.2-4.8-0.2
				c-1.7-0.3-2.9-0.8-3.8-1.5c2.5,2.2,5.5,3.2,9,3.2c3.8,0,7.1-1.4,9.9-4.1c2.8-2.7,4.1-6,4.1-9.9V156.6z"/>
			<path class="st3" d="M301.4,157c0.2,1.1,0.2,2.1,0.2,3.1c0,4.5-1.5,8.3-4.6,11.5s-6.8,4.8-11.1,4.8c-3.2,0-6-0.9-8.6-2.6
				c-2.6-1.8-4.5-4-5.9-6.9l-4-8.8c-0.8-1.2-1.5-2.3-2-3.5l-7-15.2h-65l-0.2,0.5l-12.2,27c-1.3,2.8-3.3,5.1-5.9,6.9
				c-2.6,1.8-5.5,2.6-8.6,2.6c-4.3,0-8.1-1.6-11.2-4.8c-3.2-3.2-4.8-6.9-5-11.2c-4-3.2-6-7.4-6-12.8c0-2.3,0.5-4.5,1.5-6.5
				l59.8-130.5c1.3-2.8,3.3-5.1,5.9-6.9c2.6-1.8,5.4-2.6,8.4-2.6c3.3,0,6.3,0.8,9,2.5s4.7,3.9,6,6.8l4.2,9.2c1,1.3,1.7,2.4,2,3.2
				l59.5,130.8C300.9,154.8,301.3,155.9,301.4,157z M268.2,153.3c2.2,5,6.1,7.5,11.8,7.5c3.5,0,6.5-1.2,9-3.8s3.8-5.6,3.8-9.2
				c0-2.2-0.4-4-1.2-5.5L231.9,11.8c-1.2-2.3-2.8-4.2-5-5.5s-4.6-2-7.2-2c-2.3,0-4.5,0.7-6.6,2s-3.7,3.2-4.9,5.5l-59.8,130.8
				c-0.8,1.7-1.2,3.3-1.2,5c0,3.7,1.3,6.8,3.9,9.4c2.6,2.6,5.7,3.9,9.4,3.9c2.5,0,4.8-0.7,6.9-2c2.1-1.3,3.6-3.2,4.6-5.5l13.5-29.5
				H255L268.2,153.3z M166.4,173.1c2.5,0,4.8-0.7,7-2s3.8-3.2,4.8-5.5l10.2-22.8l-8.5,16l8.2-21.2l-9.2,17l7.8-20.2l-8.8,16
				l7.2-18.8l-10.2,23c-1.3,2.8-3.3,5.1-5.9,6.8c-2.6,1.7-5.5,2.5-8.6,2.5h-1.2h0.2l0.2,0.2h0.5c0.3,0,0.6,0,0.8,0.1
				s0.4,0.1,0.8,0.1h1.2h1.2c0.8-0.2,1.5-0.3,2.1-0.4c0.6-0.1,1.3-0.2,2.1-0.4c0.2-0.2,0.3-0.2,0.5-0.2c1.7-0.8,3.1-1.8,4.2-3
				c-0.3,0.3-0.6,0.7-0.9,1.1c-0.2,0.4-0.5,0.8-0.9,1.1c-0.3,0.3-0.7,0.6-1.1,0.9c-0.4,0.2-0.9,0.5-1.4,0.9h-0.2
				c-1.3,0.8-3,1.4-5,1.8c-0.2,0.2-0.5,0.2-1,0.2c-0.3,0.2-0.9,0.2-1.8,0.2h-0.8h-0.2c0,0.2,0.1,0.2,0.2,0.2h0.5
				c1,0.3,1.7,0.5,2,0.5h1h1.5c1.5,0,3-0.2,4.5-0.8c0.3,0,0.6-0.1,0.8-0.2c0.8-0.3,1.6-0.7,2.4-1.1c0.8-0.4,1.4-1,1.9-1.9
				c-0.7,1-1.2,1.8-1.8,2.2s-1.2,1.1-2.2,1.8c-0.2,0-0.3,0.1-0.5,0.2c-0.8,0.3-1.7,0.7-2.5,1s-1.7,0.6-2.5,0.8c-0.5,0-0.8,0.1-1,0.2
				h-1.8c-0.2,0-0.2,0-0.2,0.1s-0.1,0.1-0.2,0.1h-0.2h-0.5h0.2c0.3,0.2,0.7,0.2,1,0.2s0.7,0.1,1,0.2h1c0.3,0.2,0.9,0.2,1.8,0.2
				c1.7,0,3.2-0.2,4.8-0.8c0.2,0,0.3,0,0.4-0.1c0.1-0.1,0.2-0.1,0.4-0.1c0.8-0.3,1.7-0.8,2.5-1.2c0.8-0.5,1.5-1.2,2-2
				c-0.3,1-0.9,1.8-1.8,2.2c-0.5,0.5-1.2,1.1-2.2,1.8l-0.2,0.2c-1.5,0.8-3.2,1.4-5.2,1.8c-0.2,0.2-0.5,0.2-1,0.2c-0.3,0-0.7,0-1,0.1
				s-0.7,0.1-1,0.1h-0.2C164.1,173,165.1,173.1,166.4,173.1z M257.2,136.3l-4.2-9.2h-61.8H189l30.8,1.5l-29,1.5l32.8,1.5l-31,1.5
				l34.5,1.5l-32.8,1.5l1.8,0.2H257.2z M219.9,46.6l24.5,54h-48.5L219.9,46.6z M208.9,97.6l13.2-30l0.2-0.5l-9.8,17.8l8.5-21
				l-9.2,17l7.8-20.2l-8.8,16l6-15.8l-16.2,36.8L208.9,97.6L208.9,97.6z M239.7,97.6l-13.8-30.5l-13.8,30.5H239.7z M285.9,173.1
				c3.5,0,6.5-1.2,9-3.8c2.5-2.5,3.8-5.6,3.8-9.2c0-1.8-0.3-3.7-1-5.5l-2.2-4.8c-0.5,4-2.2,7.3-5.1,10s-6.4,4-10.4,4h-1.2h0.2
				l0.2,0.2h0.5c0.3,0,0.6,0,0.9,0.1c0.2,0.1,0.5,0.1,0.9,0.1h1h1.2c0.8-0.2,1.6-0.3,2.2-0.4c0.7-0.1,1.3-0.2,2-0.4
				c0.2-0.2,0.4-0.2,0.8-0.2c1.8-0.8,3.2-1.8,4-3c-0.7,1-1.2,1.8-1.8,2.2c-0.3,0.3-0.7,0.6-1.1,0.9c-0.4,0.2-0.8,0.5-1.1,0.9h-0.2
				c-1.5,0.8-3.2,1.4-5.2,1.8c-0.2,0.2-0.5,0.2-1,0.2c-0.3,0.2-0.9,0.2-1.8,0.2h-0.8h-0.2l0.2,0.2h0.5c1,0.3,1.7,0.5,2,0.5h1h1.5
				c1.5,0,3-0.2,4.5-0.8c0.3,0,0.6-0.1,0.8-0.2c0.8-0.3,1.6-0.7,2.4-1.1c0.8-0.4,1.4-1,1.9-1.9c-0.7,1-1.3,1.8-1.8,2.2
				s-1.2,1.1-2.2,1.8c-0.2,0-0.2,0.1-0.2,0.2c-0.8,0.3-1.7,0.7-2.6,1s-1.8,0.6-2.6,0.8c-0.5,0-0.8,0.1-1,0.2h-1.8
				c-0.2,0-0.3,0-0.4,0.1s-0.2,0.1-0.4,0.1h-0.2c0.3,0.2,0.7,0.2,1,0.2s0.7,0.1,1,0.2h1c0.5,0.2,1.1,0.2,1.8,0.2
				c1.7,0,3.2-0.2,4.8-0.8c0.2,0,0.3,0,0.4-0.1s0.2-0.1,0.4-0.1c2.2-0.8,3.8-1.9,4.8-3.2c-0.7,1.2-1.3,1.9-2,2.2
				c-0.5,0.5-1.3,1.1-2.3,1.8c0,0.2-0.1,0.2-0.2,0.2c-1.3,0.8-3.1,1.4-5.2,1.8c-0.2,0.2-0.5,0.2-1,0.2c-0.3,0-0.6,0-0.9,0.1
				c-0.2,0.1-0.5,0.1-0.9,0.1h-0.5C283.6,173,284.6,173.1,285.9,173.1z"/>
			<path class="st3" d="M438.9,127.1c0,1.3-0.2,2.5-0.5,3.4s-0.7,1.8-1,2.6c1,2,1.5,4.1,1.5,6.2c0,2.3-0.4,4.2-1.1,5.6
				c-0.8,1.4-1.6,2.7-2.6,3.9c-7.2,8.8-16.2,15.8-27.2,20.9c-11,5.1-22.5,7.6-34.5,7.6c-11,0-21.5-2-31.4-6.1s-18.7-10-26.4-17.9
				c-7.7-7.8-13.5-16.8-17.6-26.8S292,106,292,95c0-1.2,0-2.2,0.1-3.2s0.1-2,0.1-3s0-2-0.1-3s-0.1-2.1-0.1-3.2c0-11,2-21.5,6.1-31.5
				s10-18.8,17.6-26.5c7.7-7.8,16.5-13.8,26.4-18s20.4-6.2,31.4-6.2s21.1,1.8,30.2,5.2c9.2,3.5,16.8,8.4,22.8,14.8
				c3.7,3.7,5.5,7.8,5.5,12.2c0,2-0.4,4-1.2,6c0.8,2.2,1.2,4.2,1.2,6.2c0,4.3-1.6,8-4.8,11.1c-3.2,3.1-6.9,4.6-11.2,4.6
				c-2.3,0-4.6-0.6-6.9-1.8c-2.2-1.2-4.5-2.6-6.9-4.2c-3.3-2.3-7.2-4.6-11.8-6.8c-4.5-2.2-10.2-3.2-17-3.2c-6.3,0-12.2,1.1-17.6,3.2
				c-5.4,2.2-10.2,5.2-14.2,9.1c-4.1,3.9-7.4,8.6-10,14s-4.2,11.4-4.9,17.9c0.7,6.5,2.3,12.5,4.9,17.9s5.9,10.1,10,14.1
				s8.8,7.1,14.2,9.2c5.4,2.2,11.3,3.2,17.6,3.2c4.3,0,8.2-0.5,11.5-1.4s6.3-2.1,9-3.5c2.7-1.4,5-3,7.1-4.8s4-3.5,5.9-5.1
				c2.5-2.3,4.9-4.3,7.2-6c2.3-1.7,4.9-2.5,7.8-2.5c2.2,0,4.3,0.5,6.4,1.4s3.9,2.2,5.5,3.8c1.6,1.6,2.8,3.4,3.8,5.5
				C438.5,122.8,438.9,124.9,438.9,127.1z M432.9,134.5c0.8-1.2,1.5-2.3,2-3.4s0.8-2.4,0.8-4.1c0-3.5-1.4-6.7-4.2-9.6
				c-2.8-2.9-6-4.4-9.5-4.4c-2.3,0-4.5,0.8-6.4,2.2c-1.9,1.5-4,3.3-6.4,5.5c-2,1.8-4.1,3.7-6.2,5.5c-2.2,1.8-4.7,3.5-7.5,5
				s-6,2.7-9.6,3.6c-3.6,0.9-7.7,1.4-12.4,1.4c-7.2,0-13.8-1.4-19.9-4.1c-6.1-2.8-11.4-6.5-15.9-11.3s-8-10.4-10.5-17
				s-3.8-13.7-3.8-21.4c0-7.2,1.2-14,3.5-20.5s5.7-12.2,10-17c4.7-5.2,10.1-9.1,16.4-11.8s13-4,20.1-4c7.3,0,13.3,1.2,18,3.6
				c4.7,2.4,8.8,4.7,12.5,7.1c2.3,1.5,4.4,2.8,6.2,3.8c1.8,1,3.8,1.5,5.8,1.5c3.5,0,6.5-1.2,9-3.6c2.5-2.4,3.8-5.4,3.8-8.9
				s-1.4-6.8-4.2-10c-5.8-6-13.2-10.7-22-14s-18.5-5-29-5c-11,0-21.2,2-30.8,6.1c-9.5,4.1-17.8,9.7-24.9,16.8S305.2,42,301.2,51.6
				s-6,20-6,30.9c0,11.1,2,21.5,6,31.2c4,9.6,9.5,18,16.6,25.2s15.4,12.8,24.9,16.8s19.8,6.1,30.8,6.1c11.5,0,22.5-2.4,33.1-7.3
				C417.1,149.6,425.9,142.9,432.9,134.5z M432.9,146.8c0.8-1.2,1.5-2.3,2-3.4c0.5-1.1,0.8-2.5,0.8-4.1c0-1.3-0.1-2.3-0.2-3
				l-0.2,0.2c-7.2,8.8-16.2,15.8-27.2,20.9c-11,5.1-22.5,7.6-34.5,7.6c-11,0-21.5-2-31.4-6.1s-18.7-10.1-26.4-18.1
				c-0.3-0.2-0.7-0.4-1-0.8c3.3,3.8,7.2,7.6,11.8,11.2c2.3,1.8,4.7,3.5,7,4.9s4.9,2.7,7.8,3.9c-5.5-2-10.7-4.7-15.5-8
				c-2.3-1.7-4.5-3.4-6.6-5.1c-2.1-1.8-4-3.6-5.9-5.6l0.5,0.5c2,2.3,4.1,4.5,6.2,6.7c2.2,2.1,4.5,4.1,7,5.9c2.5,1.8,5.1,3.5,7.8,5.1
				c2.7,1.6,5.4,2.9,8.2,4.1c-5.8-2-11.3-4.8-16.5-8.4c-5-3.3-9.7-7.3-14-12.1c0.3,0.7,0.7,1.1,1,1.2c3.8,5,8.6,9.5,14.2,13.7
				c2.7,1.8,5.4,3.6,8.2,5.2c2.8,1.7,5.8,3.1,8.8,4.2c-3.2-1-6.2-2.2-9.1-3.7s-5.8-3.1-8.6-4.9c-1.3-1-2.6-1.9-3.8-2.8
				c-1.2-0.9-2.4-1.9-3.8-3.1c7,6.8,15.1,12.1,24.4,15.9s19.1,5.6,29.6,5.6c11.5,0,22.5-2.5,33.1-7.4
				C417.1,162.1,425.9,155.3,432.9,146.8z M415.9,57.3c3.5,0,6.5-1.2,9-3.6s3.8-5.4,3.8-8.9c0-1.2-0.1-2.1-0.2-2.8
				c-3.2,4-7.3,6-12.5,6c-2.3,0-4.6-0.5-6.9-1.6s-4.5-2.4-6.9-4.1c-3.3-2.3-7.2-4.5-11.8-6.6s-10.2-3.2-17-3.2
				c-12,0-22.2,3.7-30.8,11l2.2-1.5l3.8-2.2c0.8-0.3,1.6-0.6,2.2-1c0.7-0.3,1.4-0.6,2.2-1c2-1,4.3-1.7,7-2.2c1-0.3,1.8-0.5,2.5-0.5
				c2.8-0.6,6.1-1,9.8-1c-1.5,0.1-3,0.3-4.5,0.3s-2.9,0.3-4.2,0.6c-1.5,0.3-3,0.6-4.4,1s-2.8,0.8-4.1,1.2c-2.5,1.2-5.1,2.7-7.8,4.5
				c-2.2,1.3-4.3,3.1-6.5,5.2l-0.2,0.2c-1,1-1.7,1.8-2,2.2c0.7-0.5,1.3-1,2-1.6s1.3-1.1,2-1.6c0.5-0.3,1-0.6,1.5-0.9s1-0.5,1.5-0.9
				c1.5-1,2.9-1.8,4.2-2.5c1.2-0.7,2.3-1.2,3.5-1.6c1.2-0.4,2.3-0.8,3.5-1.1c0.7-0.2,1.5-0.4,2.5-0.8c3.2-0.7,6.4-1.2,9.8-1.5
				c-2.5,0.2-5.2,0.7-8,1.5c-1.3,0.3-2.6,0.7-3.8,1.1c-1.2,0.4-2.4,0.9-3.8,1.4c-2.3,1-4.6,2.3-6.8,4c-2,1.3-4,3-6,5l-0.2,0.2
				c-0.3,0.3-0.6,0.6-0.8,0.9c-0.2,0.2-0.4,0.5-0.8,0.9c0.3-0.2,0.6-0.3,0.8-0.5c0.2-0.2,0.4-0.3,0.8-0.5c0.3-0.3,0.7-0.6,1-0.8
				s0.7-0.4,1-0.8c0.8-0.5,1.5-1,2.1-1.5s1.3-1,2.1-1.5c2-1,4.3-2.1,7-3.2l2.2-0.8c3.2-1,6.4-1.8,9.8-2.2c-1.2,0.3-2.3,0.6-3.5,0.9
				c-1.2,0.2-2.3,0.5-3.5,0.9c-2,0.7-4.2,1.6-6.5,2.8c-2,0.8-4.1,2.1-6.2,3.8c-2,1.3-3.7,2.9-5,4.5h-0.2c4.3-3.8,9.3-6.8,14.9-8.8
				s11.5-3,17.6-3c7.3,0,13.3,1.2,18,3.5s8.8,4.7,12.5,7c2.3,1.5,4.4,2.8,6.2,3.8C412,56.8,413.9,57.3,415.9,57.3z"/>
			<path class="st3" d="M581.7,147.8c0,2-0.4,4.1-1.2,6.2c0.8,2.2,1.2,4.2,1.2,6c0,4.5-1.5,8.3-4.6,11.5s-6.8,4.8-11.1,4.8
				c-2.8,0-5.5-0.7-7.9-2.1c-2.4-1.4-4.4-3.3-5.9-5.6l-43-69.2c-2.3,2.3-4.6,4.6-6.8,6.8c-2.2,2.2-4.4,4.3-6.8,6.5
				c-2.3,2.3-4.7,4.7-7.1,7s-4.8,4.7-7.1,7v20.2v12.2c0,4.8-1.7,8.9-5,12.2s-7.3,5-12,5c-3.8,0-7.2-1.1-10-3.2
				c-2.8-2.2-4.9-4.9-6.2-8.2c-0.3-0.7-0.5-1.2-0.5-1.5v-0.2c-0.2-0.7-0.3-1.3-0.4-1.9c-0.1-0.6-0.1-1.3-0.1-2.1V147V30.6V18.3
				c0-4.8,1.7-8.9,5-12.2s7.4-5,12.2-5c4.7,0,8.7,1.7,12,5s5,7.4,5,12.2v12.2v39l65.2-63.8c1.3-1.5,3-2.7,5-3.5s4-1.2,6-1.2
				c4.5,0,8.3,1.6,11.4,4.8c3.1,3.2,4.6,6.9,4.6,11.2c0,2.5-0.4,4.6-1.2,6.2c0.8,1.5,1.2,3.6,1.2,6.2c0,4.3-1.6,8.1-4.8,11.2
				l-31.5,30.8l42,68C580.9,142.1,581.7,144.8,581.7,147.8z M565.9,160.8c3.5,0,6.5-1.2,9-3.8s3.8-5.6,3.8-9.2c0-2.2-0.7-4.3-2-6.5
				l-47.8-77.8l37.8-37.2c2.7-2.5,4-5.6,4-9.2c0-3.5-1.2-6.5-3.8-9s-5.6-3.8-9.2-3.8c-3.5,0-6.5,1.2-9,3.8l-70.2,69V30.6V18.3
				c0-3.8-1.4-7.1-4.1-9.9s-6-4.1-9.9-4.1c-3.8,0-7.2,1.4-10,4.1c-2.8,2.8-4.2,6-4.2,9.9v12.2v116.2c0,3.8,1.4,7.1,4.2,9.9
				c2.8,2.8,6.2,4.1,10,4.1s7.1-1.4,9.9-4.1s4.1-6,4.1-9.9v-21.5V113l0.2-0.5c2.5-2.3,5-4.8,7.5-7.2s5-4.9,7.5-7.2l14.8-14.8
				l1.5-1.2l45,72.5c1.2,1.8,2.8,3.3,4.8,4.5C561.7,160.3,563.8,160.8,565.9,160.8z M478.4,156.6c-3.5,4.8-8.2,7.2-14,7.2
				c-3.3,0-6.2-0.8-8.8-2.2l0.2,0.2c0.7,0.3,1.2,0.7,1.8,1c0.5,0.3,1.1,0.7,1.8,1c0.8,0.3,1.5,0.6,2.1,0.8s1.3,0.3,2.1,0.5
				c-0.8,0-1.6,0-2.2,0c-0.7,0-1.3-0.2-2-0.5c-1.3-0.2-2.8-0.6-4.2-1.2c-0.3-0.2-0.6-0.3-0.9-0.5c-0.2-0.2-0.5-0.3-0.9-0.5l2.2,2.2
				c0.5,0.3,1,0.7,1.6,1.1c0.6,0.4,1.3,0.8,2.1,1.1c1.5,0.7,2.9,1.1,4.2,1.2c-0.8,0-1.6,0-2.4,0s-1.5-0.2-2.4-0.5
				c-1.3-0.2-2.8-0.7-4.2-1.5c-0.3-0.2-0.5-0.3-0.6-0.4c-0.1-0.1-0.3-0.2-0.6-0.4c0.3,0.3,0.7,0.7,1,1s0.7,0.7,1,1
				c0.8,0.8,2.1,1.7,3.8,2.5c1.5,0.7,2.9,1.1,4.2,1.2c-0.8,0.2-1.6,0.2-2.4,0.1c-0.8-0.1-1.5-0.2-2.4-0.4c-0.8-0.3-1.6-0.6-2.2-0.9
				c-0.7-0.2-1.4-0.6-2.2-1.1c2.8,2.8,6.2,4.2,10.2,4.2c3.8,0,7.1-1.4,9.9-4.1s4.1-6,4.1-9.9L478.4,156.6L478.4,156.6z M509.9,94.3
				l42,67.8h0.2c-0.3-0.3-0.5-0.6-0.6-0.9c-0.1-0.2-0.2-0.5-0.4-0.9l1.2-0.5c-0.3-0.3-0.7-0.8-1-1.5l1.5-0.5l-0.5-0.5
				c-0.3-0.3-0.6-0.8-0.8-1.2h0.5l-43-69c-2.3,2.2-4.6,4.3-6.8,6.5c-2.2,2.2-4.4,4.4-6.8,6.8c-1,1-2,2-3,3s-2.1,2-3.2,3l8.8-7.5
				l-10.8,12l9.8-8.2l-10,11.2l8.8-7.2l-9.2,10.5l0.8-0.8c1-1,2-2,3.1-3s2.1-2,3.1-3c2.3-2.3,4.8-4.8,7.4-7.2c2.6-2.5,5-4.9,7.4-7.2
				L509.9,94.3z M554.9,156.1l-17-25l14.2,26.5L554.9,156.1z M554.4,157.6l-15-21.5l12.2,23.2L554.4,157.6z M570.7,29.6
				c0-1.3-0.1-2.2-0.2-2.8c-0.3,0.3-0.6,0.6-0.8,0.9c-0.2,0.2-0.4,0.5-0.8,0.9l-25.8,25.2l-2.8,2.8l12.5-10.8l-12.2,13.5l11-9.5
				l-11,12l10-8.2l-5.8,6.2l21.8-21.2C569.3,36.1,570.7,33.1,570.7,29.6z M553.7,159.3l-13-18l10.2,19.8L553.7,159.3z M552.9,160.8
				l-11-14.2l8.5,16L552.9,160.8z M552.4,162.6l-9-11l6.2,12.8L552.4,162.6z M565.9,173.1c3.5,0,6.5-1.2,9-3.8s3.8-5.6,3.8-9.2
				c0-0.3,0-0.7-0.1-1.1c-0.1-0.4-0.1-0.8-0.1-1.1c-3.2,4-7.3,6-12.5,6c-3.3,0-6.2-0.8-8.5-2.5c0.3,0.3,0.6,0.6,0.9,0.9
				s0.5,0.5,0.9,0.9c0.5,0.3,1,0.7,1.6,1s1.2,0.7,1.9,1s1.3,0.5,2,0.6s1.4,0.2,2.2,0.4c-0.8,0.2-1.6,0.2-2.2,0.1
				c-0.7-0.1-1.4-0.2-2.2-0.4c-1.3-0.3-2.8-0.8-4.2-1.5l-1.5-0.8c0.5,0.8,1.2,1.5,2.2,2c1,1,2.2,1.8,3.5,2.2
				c1.3,0.8,2.8,1.2,4.2,1.2c-0.8,0.2-1.6,0.2-2.2,0.1c-0.7-0.1-1.4-0.2-2.2-0.4c-1.7-0.3-3.1-0.9-4.2-1.8c-0.7-0.3-1.1-0.6-1.2-0.8
				c0.3,0.3,0.6,0.7,0.9,1c0.2,0.3,0.5,0.7,0.9,1c0.7,0.5,1.3,1,1.9,1.4c0.6,0.4,1.2,0.8,1.9,1.1c1.7,0.8,3.2,1.2,4.5,1.2
				c-1.8,0.3-3.4,0.2-4.8-0.2c-1.3-0.2-2.7-0.7-4-1.5C560.3,172.2,562.9,173.1,565.9,173.1z"/>
		</g>
	</g>
	<g id="Layer_2">
		<g>
			<g>
				<path class="st3" d="M554,163.5c3.2,0,3.2-5,0-5S550.8,163.5,554,163.5L554,163.5z"/>
			</g>
		</g>
		<g>
			<g>
				<path class="st3" d="M553.7,162.4c3.2,0,3.2-5,0-5S550.5,162.4,553.7,162.4L553.7,162.4z"/>
			</g>
		</g>
		<g>
			<g>
				<path class="st3" d="M553.3,161c3.2,0,3.2-5,0-5S550.1,161,553.3,161L553.3,161z"/>
			</g>
		</g>
		<g>
			<g>
				<path class="st3" d="M551.9,163.9c3.2,0,3.2-5,0-5S548.6,163.9,551.9,163.9L551.9,163.9z"/>
			</g>
		</g>
		<g>
			<g>
				<path class="st3" d="M551.9,165.6c3.2,0,3.2-5,0-5S548.6,165.6,551.9,165.6L551.9,165.6z"/>
			</g>
		</g>
		<g>
			<g>
				<path class="st3" d="M550.1,162.6c3.2,0,3.2-5,0-5C546.9,157.6,546.9,162.6,550.1,162.6L550.1,162.6z"/>
			</g>
		</g>
		<g>
			<g>
				<path class="st3" d="M551.4,164.7c3.2,0,3.2-5,0-5C548.1,159.7,548.1,164.7,551.4,164.7L551.4,164.7z"/>
			</g>
		</g>
		<g>
			<g>
				<path class="st3" d="M551.4,165c3.2,0,3.2-5,0-5C548.1,160,548.1,165,551.4,165L551.4,165z"/>
			</g>
		</g>
		<g>
			<g>
				<path class="st3" d="M551,164.2c3.2,0,3.2-5,0-5S547.8,164.2,551,164.2L551,164.2z"/>
			</g>
		</g>
		<g>
			<g>
				<path class="st3" d="M549.5,161.3c3.2,0,3.2-5,0-5S546.3,161.3,549.5,161.3L549.5,161.3z"/>
			</g>
		</g>
		<g>
			<g>
				<path class="st3" d="M549.1,160.4c3.2,0,3.2-5,0-5C545.9,155.4,545.9,160.4,549.1,160.4L549.1,160.4z"/>
			</g>
		</g>
		<g>
			<g>
				<path class="st3" d="M548.5,159.6c3.2,0,3.2-5,0-5S545.3,159.6,548.5,159.6L548.5,159.6z"/>
			</g>
		</g>
		<g>
			<g>
				<path class="st3" d="M547.8,158.7c3.2,0,3.2-5,0-5S544.6,158.7,547.8,158.7L547.8,158.7z"/>
			</g>
		</g>
		<g>
			<g>
				<path class="st3" d="M547,158c3.2,0,3.2-5,0-5S543.8,158,547,158L547,158z"/>
			</g>
		</g>
		<g>
			<g>
				<path class="st3" d="M546.5,157.2c3.2,0,3.2-5,0-5S543.2,157.2,546.5,157.2L546.5,157.2z"/>
			</g>
		</g>
		<g>
			<g>
				<path class="st3" d="M552.7,162.1c3.2,0,3.2-5,0-5S549.4,162.1,552.7,162.1L552.7,162.1z"/>
			</g>
		</g>
		<g>
			<g>
				<path class="st3" d="M553.3,161.5c3.2,0,3.2-5,0-5S550.1,161.5,553.3,161.5L553.3,161.5z"/>
			</g>
		</g>
		<g>
			<g>
				<path class="st3" d="M553.6,160.4c3.2,0,3.2-5,0-5C550.4,155.4,550.4,160.4,553.6,160.4L553.6,160.4z"/>
			</g>
		</g>
		<g>
			<g>
				<path class="st3" d="M552.6,158.2c3.2,0,3.2-5,0-5C549.4,153.2,549.4,158.2,552.6,158.2L552.6,158.2z"/>
			</g>
		</g>
		<g>
			<g>
				<path class="st3" d="M550.3,153.3c1.6,0,1.6-2.5,0-2.5S548.7,153.3,550.3,153.3L550.3,153.3z"/>
			</g>
		</g>
		<g>
			<g>
				<path class="st3" d="M552,151.9c-0.2,0-0.3,0-0.5,0.1c-0.7,0.1-1,0.9-0.9,1.5c0.2,0.7,0.9,1,1.5,0.9c0.2,0,0.3,0,0.5-0.1
					c0.7-0.1,1-0.9,0.9-1.5C553.4,152.1,552.7,151.8,552,151.9L552,151.9z"/>
			</g>
		</g>
		<g>
			<g>
				<path class="st3" d="M551.6,154.4c1.6,0,1.6-2.5,0-2.5S550,154.4,551.6,154.4L551.6,154.4z"/>
			</g>
		</g>
		<g>
			<g>
				<path class="st3" d="M552.9,152.7c0.1-1.3-0.6-2.5-1.7-3.2c-0.3-0.2-0.6-0.3-0.8-0.6s-0.3-0.6-0.4-0.9c-0.4-0.7-0.9-1.3-1.5-1.8
					c-1.2-1.1-2.9,0.6-1.8,1.8c0.4,0.4,0.8,0.8,1.1,1.3s0.4,1,0.8,1.4c0.6,0.7,1.9,0.8,1.8,2C550.3,154.4,552.8,154.3,552.9,152.7
					L552.9,152.7z"/>
			</g>
		</g>
		<g>
			<g>
				<path class="st3" d="M548.8,146.7c-0.3-1.3-1.1-2.1-1.9-3.1c-1-1.3-1.8-2.9-2.7-4.4c-0.8-1.4-3-0.1-2.2,1.3
					c0.8,1.3,1.5,2.7,2.4,3.9c0.6,0.9,1.7,1.8,2,2.9C546.8,149,549.2,148.3,548.8,146.7L548.8,146.7z"/>
			</g>
		</g>
		<g>
			<g>
				<path class="st3" d="M544,139.3c-1.2-2.9-2.4-5.8-4.1-8.5c-0.9-1.3-3-0.1-2.2,1.3c1.7,2.6,2.9,5.6,4.1,8.5
					C542.5,142.1,544.6,140.8,544,139.3L544,139.3z"/>
			</g>
		</g>
		<g>
			<g>
				<path class="st3" d="M544.2,154.7c1.6,0,1.6-2.5,0-2.5C542.6,152.2,542.6,154.7,544.2,154.7L544.2,154.7z"/>
			</g>
		</g>
		<g>
			<g>
				<path class="st3" d="M544.1,153.8c1.6,0,1.6-2.5,0-2.5S542.5,153.8,544.1,153.8L544.1,153.8z"/>
			</g>
		</g>
		<g>
			<g>
				<path class="st3" d="M545.3,154.4c1.6,0,1.6-2.5,0-2.5S543.7,154.4,545.3,154.4L545.3,154.4z"/>
			</g>
		</g>
		<g>
			<g>
				<path class="st3" d="M546.1,152.2c-1.4-1.9-2.9-3.8-4.3-5.7c-1-1.3-3.1,0-2.2,1.3c1.4,1.9,2.9,3.8,4.3,5.7
					C544.9,154.7,547.1,153.4,546.1,152.2L546.1,152.2z"/>
			</g>
		</g>
		<g>
			<g>
				<path class="st3" d="M541.1,148.5c1.6,0,1.6-2.5,0-2.5S539.5,148.5,541.1,148.5L541.1,148.5z"/>
			</g>
		</g>
		<g>
			<g>
				<path class="st3" d="M541.4,149.2c1.6,0,1.6-2.5,0-2.5C539.8,146.7,539.8,149.2,541.4,149.2L541.4,149.2z"/>
			</g>
		</g>
		<g>
			<g>
				<path class="st3" d="M541.7,149.3c1.6,0,1.6-2.5,0-2.5C540,146.8,540,149.3,541.7,149.3L541.7,149.3z"/>
			</g>
		</g>
		<g>
			<g>
				<path class="st3" d="M541.9,150c1.6,0,1.6-2.5,0-2.5C540.3,147.5,540.3,150,541.9,150L541.9,150z"/>
			</g>
		</g>
		<g>
			<g>
				<path class="st3" d="M542.3,150.2c1.6,0,1.6-2.5,0-2.5S540.7,150.2,542.3,150.2L542.3,150.2z"/>
			</g>
		</g>
		<g>
			<g>
				<path class="st3" d="M542.6,151.1c1.6,0,1.6-2.5,0-2.5S541,151.1,542.6,151.1L542.6,151.1z"/>
			</g>
		</g>
		<g>
			<g>
				<path class="st3" d="M542.9,151.1c1.6,0,1.6-2.5,0-2.5C541.3,148.6,541.3,151.1,542.9,151.1L542.9,151.1z"/>
			</g>
		</g>
		<g>
			<g>
				<path class="st3" d="M542.8,151.1c1.6,0,1.6-2.5,0-2.5S541.2,151.1,542.8,151.1L542.8,151.1z"/>
			</g>
		</g>
		<g>
			<g>
				<path class="st3" d="M542.8,151c1.6,0,1.6-2.5,0-2.5S541.2,151,542.8,151L542.8,151z"/>
			</g>
		</g>
		<g>
			<g>
				<path class="st3" d="M542.8,150.9c1.6,0,1.6-2.5,0-2.5S541.2,150.9,542.8,150.9L542.8,150.9z"/>
			</g>
		</g>
		<g>
			<g>
				<path class="st3" d="M543,151.2c1.6,0,1.6-2.5,0-2.5C541.3,148.7,541.3,151.2,543,151.2L543,151.2z"/>
			</g>
		</g>
		<g>
			<g>
				<path class="st3" d="M543,151.3c1.6,0,1.6-2.5,0-2.5S541.4,151.3,543,151.3L543,151.3z"/>
			</g>
		</g>
		<g>
			<g>
				<path class="st3" d="M543.1,151.4c1.6,0,1.6-2.5,0-2.5S541.5,151.4,543.1,151.4L543.1,151.4z"/>
			</g>
		</g>
		<g>
			<g>
				<path class="st3" d="M543.2,151.5c1.6,0,1.6-2.5,0-2.5C541.6,149,541.6,151.5,543.2,151.5L543.2,151.5z"/>
			</g>
		</g>
		<g>
			<path class="st4" d="M646.3,64.1h-39.8c-1.5,0-2.8-0.5-3.8-1.6s-1.4-2.3-1.4-3.8c0-4.7,0.9-8.6,2.8-11.7c1.9-3.1,4.2-5.8,7-7.9
				c2.8-2.1,5.8-3.9,9.1-5.4s6.3-2.9,9.1-4.3s5.1-2.9,7-4.5s2.8-3.7,2.8-6.1c0-1.5-0.4-2.7-1.2-3.6c-0.8-0.9-1.9-1.7-3.1-2.2
				c-1.2-0.6-2.5-1-3.9-1.2s-2.7-0.4-3.8-0.4c-1.8,0-3.4,0.1-4.8,0.2c-1.4,0.2-2.8,0.5-4,0.9s-2.6,0.9-3.8,1.6
				c-1.3,0.6-2.7,1.4-4.2,2.2c-0.9,0.5-1.7,0.7-2.6,0.7c-1.4,0-2.7-0.5-3.8-1.4c-1.1-1-1.7-2.2-1.7-3.7c0-1.1,0.3-2,0.9-2.8
				c0.6-0.8,1.3-1.6,2-2.2c1.5-1.1,3.1-2.1,4.9-2.9c1.8-0.8,3.7-1.4,5.6-1.9c1.9-0.5,3.9-0.8,5.8-1c2-0.2,3.9-0.3,5.7-0.3
				c2.6,0,5.3,0.4,8.1,1.1s5.4,1.8,7.8,3.3c2.4,1.5,4.3,3.3,5.9,5.5c1.5,2.2,2.3,4.9,2.3,7.9s-0.5,5.6-1.5,7.7s-2.3,4-4,5.5
				c-1.7,1.6-3.6,2.9-5.8,4.1c-2.2,1.2-4.5,2.4-6.9,3.5c-1.2,0.6-2.8,1.4-4.8,2.3c-2,0.9-3.9,2-5.8,3.2c-1.9,1.2-3.5,2.5-4.8,4
				c-1.4,1.4-2,2.9-2,4.5h31c1.5,0,2.8,0.5,3.8,1.6c1,1,1.4,2.3,1.4,3.8s-0.5,2.7-1.5,3.8C649,63.6,647.7,64.1,646.3,64.1z"/>
		</g>
		<g>
			<path class="st3" d="M652.1,58.7c0,0.8-0.2,1.6-0.5,2.5c0.3,0.8,0.5,1.6,0.5,2.5c0,1.6-0.6,3-1.7,4.1c-1.1,1.2-2.5,1.8-4.1,1.8
				h-39.8c-1.3,0-2.5-0.4-3.6-1.3s-1.8-2-2.1-3.3c-0.1-0.3-0.1-0.8-0.1-1.4s0-1.2,0-1.8s0.1-1.1,0.2-1.6c-0.1-0.3-0.2-0.8-0.2-1.5
				c0-4.2,0.7-7.8,2.2-10.8s3.3-5.5,5.7-7.6c2.3-2.1,4.8-3.9,7.6-5.4s5.5-2.8,8.2-4c3.2-1.5,6-2.9,8.5-4.4c2.5-1.4,4.2-3.2,5-5.2
				c-0.4-0.9-1-1.6-1.9-2.1c-0.9-0.6-1.8-1-2.8-1.4s-2.1-0.6-3.2-0.8c-1.1-0.1-2.1-0.2-3-0.2c-1.8,0-3.4,0.1-4.8,0.2
				c-1.4,0.2-2.8,0.5-4,0.9s-2.5,0.9-3.7,1.5s-2.6,1.3-4,2.1c-0.4,0.3-0.8,0.5-1.3,0.6c-0.5,0.2-1,0.2-1.6,0.2
				c-1.3,0-2.5-0.4-3.6-1.2c-1.1-0.8-1.8-1.8-2.2-2.9c-0.1-0.1-0.1-0.2-0.1-0.3c0-0.1,0-0.2-0.1-0.3c0-0.1,0-0.3,0-0.5s0-0.4,0-0.6
				c0-0.9,0.2-1.7,0.6-2.5c-0.4-0.7-0.6-1.5-0.6-2.4c0-1.9,1-3.7,3.1-5.4c1.8-1.5,3.8-2.6,6-3.4s4.3-1.5,6.4-1.9
				c2.1-0.4,4-0.7,5.8-0.8s3.2-0.2,4.3-0.2c2.5,0,5.2,0.4,8.2,1.1c2.9,0.7,5.6,1.9,8,3.4s4.5,3.5,6.1,5.8s2.5,5,2.5,8.2
				c0,0.5,0,1,0,1.5c0,0.4-0.1,0.8-0.2,1.2c0.1,0.3,0.1,0.7,0.2,1.1c0,0.4,0,0.8,0,1.1c0,3.1-0.5,5.8-1.5,8s-2.4,4.1-4.2,5.8
				c-1.7,1.6-3.7,3.1-5.9,4.2c-2.2,1.2-4.5,2.4-6.9,3.5c-0.3,0.1-0.5,0.2-0.8,0.4c-0.2,0.1-0.5,0.2-0.9,0.4
				c-0.9,0.4-1.8,0.9-2.9,1.4c-1.1,0.5-2.2,1.1-3.2,1.7c-1.1,0.6-2.2,1.2-3.2,1.9c-1.1,0.7-2,1.4-2.9,2.1h27.1c1.7,0,3,0.6,4.1,1.7
				C651.5,55.6,652.1,57,652.1,58.7z M649.5,62c0.9-0.9,1.3-2.1,1.3-3.4c0-1.3-0.4-2.4-1.3-3.3c-0.9-0.9-2-1.3-3.3-1.3h-31.6v-0.6
				c0-1.5,0.6-3,1.8-4.4s2.6-2.7,4.2-3.8c1.7-1.2,3.5-2.2,5.4-3.2s3.5-1.8,4.9-2.4c0.3-0.1,0.6-0.2,0.9-0.4c0.2-0.1,0.5-0.2,0.6-0.4
				c2.4-1.1,4.7-2.3,6.9-3.4c2.2-1.2,4-2.5,5.6-4c1.6-1.5,2.9-3.3,3.9-5.3c1-2.1,1.5-4.6,1.5-7.5c0-3-0.8-5.6-2.3-7.7
				c-1.5-2.2-3.4-4-5.8-5.4c-2.3-1.4-4.8-2.4-7.6-3.1s-5.3-1-7.8-1c-4.4,0-8.5,0.5-12.3,1.6c-3.8,1-6.9,2.5-9.3,4.4
				c-1.8,1.4-2.7,2.9-2.7,4.5c0,1.2,0.5,2.2,1.5,3.2c1,0.9,2.1,1.3,3.4,1.3c0.7,0,1.5-0.2,2.3-0.6c1.5-0.9,2.8-1.6,4.1-2.2
				c1.3-0.6,2.5-1.2,3.8-1.6c1.3-0.4,2.7-0.7,4.2-0.9s3.2-0.3,5-0.3c1.2,0,2.5,0.1,4,0.3s2.9,0.6,4.2,1.2c1.3,0.6,2.4,1.4,3.2,2.4
				c0.9,1,1.3,2.3,1.3,3.9c0,1.7-0.4,3.1-1.2,4.4s-1.9,2.4-3.2,3.4c-1.4,1-2.9,2-4.7,2.9s-3.7,1.8-5.7,2.6c-2.7,1.3-5.5,2.6-8.2,4
				s-5.2,3.1-7.4,5.1s-4,4.4-5.4,7.2s-2,6.2-2,10.2c0,1.3,0.5,2.5,1.3,3.4c0.9,0.9,2,1.4,3.2,1.4H646
				C647.5,63.4,648.6,62.9,649.5,62z M649.5,67c0.9-0.9,1.3-2,1.3-3.3c0-0.2,0-0.4,0-0.6c0-0.2,0-0.4,0-0.5
				c-1.2,1.4-2.7,2.1-4.5,2.1h-39.8c-0.2,0-0.4,0-0.6-0.1c-0.2-0.1-0.4-0.1-0.6-0.1c0.4,0.2,0.7,0.2,0.9,0.2c0.1,0,0.1,0,0.2,0.1
				c0.3,0.1,0.8,0.1,1.5,0.1c0.1,0,0.3,0,0.7,0s0.6,0,0.7,0h0.1c0.1,0,0.2,0,0.5,0s0.6,0,1,0.1c0.4,0,0.7,0,1,0s0.5,0,0.5,0
				c-0.2,0.1-0.7,0.1-1.5,0.1s-1.3,0.1-1.4,0.1h-0.3c-0.1,0-0.4,0-0.8,0c-0.4,0-0.7,0-0.8,0h-0.9H606c-0.2-0.1-0.4-0.1-0.5-0.1
				c-0.2,0-0.3,0-0.5-0.1c-0.7-0.1-1.2-0.3-1.5-0.6c0,0.1,0,0.1,0,0.1s0,0,0,0.1c0.1,0,0.2,0,0.2,0.1c0.9,0.6,1.8,0.9,2.6,1
				c0.1,0.1,0.1,0.1,0.2,0.1c0.3,0.1,0.6,0.1,0.9,0.1c0.2,0,0.5,0,0.8,0c0.1,0.1,0.4,0.1,0.8,0.1c0.4,0,0.6,0,0.8,0h0.1
				c0.3,0.1,0.9,0.1,1.6,0.1c0.7,0,1.3,0.1,1.6,0.1c-0.3,0-0.9,0-1.5,0c-0.7,0-1.2,0.1-1.6,0.1h-0.4c-0.1,0-0.4,0-0.9,0.1
				c-0.4,0-0.7,0-0.8,0h-1c-0.4,0-0.7,0-0.8-0.1c-0.3,0-0.6-0.1-1-0.2c-0.2-0.1-0.4-0.1-0.7-0.1c-0.2,0-0.5-0.1-0.6-0.3
				c0.1,0,0.1,0,0.2,0.1c0.7,0.5,1.7,0.9,2.8,1c0.1,0.1,0.2,0.1,0.3,0.1c0.3,0.1,0.5,0.1,0.8,0.1s0.5,0,0.8,0
				c0.2,0.1,0.5,0.1,0.8,0.1s0.6,0,0.8,0h0.1c0.5,0.1,1,0.1,1.7,0.2c0.7,0,1.2,0.1,1.7,0.1c-0.5,0.1-1,0.1-1.7,0.1
				c-0.6,0-1.2,0-1.8,0H610c-0.3,0.1-0.6,0.1-0.9,0.1c-0.4,0-0.7,0-1,0c-0.2,0-0.4,0-0.6,0c-0.2,0-0.4,0-0.5,0h-0.9
				c-0.3,0-0.6-0.1-1-0.2s-0.7-0.2-1-0.3c0.8,0.4,1.7,0.7,2.6,0.9h39.6C647.5,68.4,648.6,67.9,649.5,67z M627,15.6
				c0.9,0,1.8,0.1,2.9,0.2c1.1,0.1,2.1,0.4,3.2,0.7c1,0.3,2,0.8,3,1.2c1,0.5,1.8,1.1,2.3,2c0-0.1,0-0.3,0-0.5s0-0.4,0-0.5
				c0-1.3-0.4-2.4-1.2-3.3c-0.8-0.9-1.8-1.6-3-2.1c-1.2-0.5-2.4-0.9-3.8-1.1c-1.3-0.2-2.5-0.3-3.6-0.3c-1.8,0-3.4,0.1-4.8,0.3
				c-1.4,0.2-2.8,0.5-4,0.9s-2.5,0.9-3.7,1.5s-2.6,1.3-4,2.1c-0.4,0.3-0.8,0.5-1.3,0.6c-0.5,0.2-1,0.2-1.6,0.2
				c-1.2,0-2.2-0.3-3.1-0.9v0.1c0.3,0.2,0.7,0.4,1,0.6s0.7,0.3,1,0.4h0.1c0.4,0.1,0.7,0.2,1,0.2h0.1c0.2,0.1,0.6,0,1.1-0.1h0.1
				c0.8-0.3,1.5-0.6,2.2-0.9c-0.7,0.5-1.5,0.9-2.2,1.2c-0.4,0.2-0.8,0.3-1.2,0.3c-0.3,0.1-0.8,0-1.3-0.1c-0.7-0.1-1.3-0.3-1.9-0.6
				c0.7,0.6,1.3,1,2,1.1h0.1c0.4,0.1,0.7,0.2,1,0.3h0.2c0.1,0,0.3,0,0.5-0.1c0.2,0,0.4,0,0.6,0c0-0.1,0-0.1,0.1-0.1
				c0.9-0.2,1.6-0.5,2.3-0.9c-0.3,0.3-0.7,0.5-1,0.8c-0.4,0.2-0.8,0.4-1.2,0.5c-0.4,0.2-0.8,0.3-1.3,0.3c-0.5,0.1-1,0.1-1.4,0
				c-0.3-0.1-0.5-0.2-0.8-0.3c-0.3-0.1-0.5-0.2-0.8-0.3c0.5,0.4,1.1,0.7,1.8,0.9h0.1c0.4,0.2,0.8,0.3,1.1,0.3h0.1c0.2,0,0.4,0,0.6,0
				c0.2,0,0.4,0,0.6,0l0.1-0.1c0.4-0.1,0.8-0.3,1.2-0.4s0.8-0.3,1.2-0.6c-0.7,0.6-1.5,1.1-2.4,1.5c-0.3,0.1-0.7,0.3-1.4,0.4
				c-0.7,0-1.2,0-1.5-0.1c-0.2-0.1-0.4-0.2-0.6-0.2c-0.2,0-0.4-0.1-0.5-0.1c0.5,0.3,1,0.5,1.3,0.6s0.7,0.1,1.2,0.1
				c0.7,0,1.5-0.2,2.3-0.6c1.5-0.9,2.8-1.6,4.1-2.2s2.5-1.1,3.8-1.6c1.3-0.4,2.7-0.7,4.2-0.9C623.4,15.7,625.1,15.6,627,15.6z
				 M632.5,43.8c2.2-1.1,4.3-2.1,6.3-3.2c2-1.1,3.8-2.3,5.4-3.6c1.6-1.3,2.9-2.9,4-4.6c1-1.8,1.7-3.9,2-6.2
				c-0.7,1.7-1.7,3.3-2.9,4.6c-1.2,1.3-2.6,2.5-4.1,3.6s-3.1,2.1-4.8,3s-3.5,1.8-5.3,2.6c-0.3,0.1-0.5,0.3-0.8,0.4
				c-0.2,0.1-0.5,0.3-0.9,0.4c-1.3,0.6-2.8,1.3-4.5,2.1s-3.3,1.8-4.9,2.9c-1.6,1.1-2.9,2.2-4.1,3.4c-1.1,1.2-1.8,2.4-2,3.7h1.4
				c0.9-0.9,1.9-1.7,3-2.5c1.2-0.8,2.4-1.6,3.6-2.3c1.2-0.7,2.4-1.3,3.6-1.9c1.2-0.6,2.3-1.1,3.3-1.5c0.3-0.1,0.6-0.2,0.9-0.4
				C632.1,44,632.3,43.9,632.5,43.8z"/>
		</g>
	</g>
</g>
</svg>
