<?xml version="1.0" encoding="UTF-8" standalone="no"?>
<svg width="272px" height="297px" viewBox="0 0 272 297" version="1.1" xmlns="http://www.w3.org/2000/svg" xmlns:xlink="http://www.w3.org/1999/xlink">
    <!-- Generator: Sketch 39.1 (31720) - http://www.bohemiancoding.com/sketch -->
    <title>Shape</title>
    <desc>Created with Sketch.</desc>
    <defs></defs>
    <g id="Page-1" stroke="none" stroke-width="1" fill="none" fill-rule="evenodd">
        <g id="open-parachute" fill="#E6DA87">
            <g id="Capa_1">
                <path d="M271.568,135.915 C271.576,135.815 271.581,135.714 271.583,135.612 C271.583,135.589 271.586,135.565 271.587,135.542 C271.587,135.528 271.589,135.514 271.589,135.5 C271.589,60.785 210.804,0 136.089,0 C61.374,0 0.589,60.785 0.589,135.5 C0.589,135.64 0.6,135.777 0.61,135.915 C0.441,137.421 0.871,138.987 1.964,140.203 L130.509,283.214 L130.509,290.679 C130.509,293.717 132.971,296.179 136.009,296.179 C139.047,296.179 141.509,293.717 141.509,290.679 L141.509,283.502 L270.215,140.202 C271.308,138.986 271.737,137.42 271.568,135.915 L271.568,135.915 Z M13.294,136.352 C20.409,130.503 29.237,127.32 38.589,127.32 C48.968,127.32 58.703,131.242 66.165,138.379 L116.762,251.464 L13.294,136.352 L13.294,136.352 Z M130.589,255.434 L77.579,136.956 C84.813,130.723 93.921,127.32 103.589,127.32 C113.702,127.32 123.206,131.038 130.589,137.829 L130.589,255.434 L130.589,255.434 Z M155.414,251.56 L206.016,138.378 C213.478,131.242 223.211,127.32 233.59,127.32 C242.943,127.32 251.772,130.504 258.888,136.354 L155.414,251.56 L155.414,251.56 Z M141.589,255.53 L141.589,137.83 C148.972,131.038 158.476,127.32 168.589,127.32 C178.258,127.32 187.366,130.724 194.601,136.957 L141.589,255.53 L141.589,255.53 Z M233.59,116.32 C233.589,116.32 233.59,116.32 233.59,116.32 C221.561,116.32 210.203,120.442 201.09,128.024 C191.976,120.441 180.62,116.32 168.59,116.32 C168.589,116.32 168.59,116.32 168.59,116.32 C156.561,116.32 145.204,120.442 136.09,128.024 C126.976,120.441 115.62,116.32 103.59,116.32 C103.589,116.32 103.59,116.32 103.59,116.32 C91.561,116.32 80.204,120.442 71.09,128.024 C61.976,120.441 50.62,116.32 38.59,116.32 C29.102,116.32 20.034,118.885 12.154,123.688 C18.123,60.559 71.424,11 136.089,11 C200.754,11 254.056,60.559 260.025,123.688 C252.145,118.885 243.077,116.32 233.59,116.32 L233.59,116.32 Z" id="Shape"></path>
            </g>
        </g>
    </g>
</svg>