<?xml version="1.0" encoding="utf-8"?>
<!-- Generator: Adobe Illustrator 20.1.0, SVG Export Plug-In . SVG Version: 6.00 Build 0)  -->
<svg version="1.1" id="Layer_1" xmlns="http://www.w3.org/2000/svg" xmlns:xlink="http://www.w3.org/1999/xlink" x="0px" y="0px"
	 viewBox="0 0 652.1 216.2" style="enable-background:new 0 0 652.1 216.2;" xml:space="preserve">
<style type="text/css">
	.st0{fill:#DDDDDD;stroke:#FFFFFF;stroke-miterlimit:10;}
	.st1{fill:#DDDDDD;}
	.st2{fill:#F0818E;}
	.st3{fill:#3C59A5;}
	.st4{fill:#98CFB8;}
</style>
<g id="Layer_2_1_">
	<rect x="33" y="94.6" class="st0" width="69.7" height="13.4"/>
	<rect x="186.9" y="125" class="st0" width="72.4" height="11.9"/>
	<ellipse class="st1" cx="17.3" cy="160.7" rx="15.8" ry="13.4"/>
	
		<ellipse transform="matrix(5.025734e-02 -0.9987 0.9987 5.025734e-02 -41.5414 267.2817)" class="st1" cx="119.8" cy="155.5" rx="19" ry="14.8"/>
	<ellipse class="st1" cx="167.1" cy="156.5" rx="13.7" ry="18"/>
	<rect x="173" y="125" class="st1" width="16" height="23.2"/>
	<rect x="168" y="142.9" class="st1" width="15" height="17.9"/>
	
		<rect x="174.4" y="146.7" transform="matrix(0.5344 -0.8452 0.8452 0.5344 -40.8028 224.6146)" class="st1" width="18.1" height="5.2"/>
	<ellipse class="st1" cx="285.4" cy="163.1" rx="14.6" ry="11.4"/>
	<ellipse class="st1" cx="295.3" cy="156.2" rx="3.4" ry="9.3"/>
	<polygon class="st1" points="208.6,98.9 199.8,98.9 199.8,54.5 226.5,63.2 	"/>
	<g>
		<path class="st1" d="M434.9,148.4c-7.5,9-16.7,16-27.5,20.9s-22,7.3-33.6,7.3c-11.2,0-21.7-2.1-31.5-6.4s-18.3-10.1-25.4-17.5
			c-7.2-7.4-12.8-16-17-25.9s-6.2-20.4-6.2-31.7s2.1-21.7,6.2-31.5c4.2-9.8,9.8-18.3,17-25.6c7.1-7.3,15.6-13.1,25.4-17.3
			s20.3-6.4,31.5-6.4c9.4,0,18.8,1.5,28.2,4.4c9.4,2.9,17.4,7.9,24.1,15c1.5,1.7,2.7,3.4,3.6,5.1c0.9,1.8,1.4,3.8,1.4,6.2
			c0,4-1.5,7.4-4.4,10.1c-2.9,2.7-6.3,4-10.2,4c-2.7,0-5.3-0.8-7.9-2.5s-5.5-3.5-8.7-5.4s-6.9-3.7-11-5.4c-4.2-1.7-9.2-2.5-15.1-2.5
			c-7.4,0-14.1,1.4-20.1,4.1c-6,2.8-11.2,6.5-15.4,11.2c-4.3,4.7-7.5,10.2-9.8,16.6c-2.2,6.4-3.4,13.1-3.4,20.1s1.1,13.7,3.4,20.1
			s5.5,11.9,9.8,16.7s9.4,8.6,15.4,11.4c6,2.9,12.7,4.3,20.1,4.3s13.5-1.2,18.3-3.6c4.9-2.4,9-5.1,12.5-8c3.4-2.9,6.5-5.6,9.2-8
			c2.7-2.4,5.6-3.6,8.8-3.6c2,0,3.9,0.5,5.8,1.4c1.8,0.9,3.5,2.1,5,3.5s2.7,3.1,3.5,4.9c0.8,1.9,1.2,3.8,1.2,5.8
			c0,1.9-0.3,3.4-0.9,4.7C436.7,145.7,435.9,147,434.9,148.4z"/>
	</g>
	<g>
		<path class="st1" d="M566.1,174.3c-2.5,0-4.9-0.6-7.2-1.9c-2.3-1.3-4.1-3-5.4-5.2l-44.2-71.1c-4.9,4.9-9.8,9.7-14.8,14.6
			s-10,9.8-14.8,14.8v33.2c0,4.2-1.5,7.8-4.5,10.9c-3,3.1-6.7,4.7-11.1,4.7s-8.1-1.5-11.2-4.5s-4.6-6.7-4.6-11.1V29.4
			c0-4.4,1.6-8.1,4.6-11.2c3.1-3.1,6.8-4.7,11.2-4.7c4.4,0,8,1.6,11.1,4.7c3,3.1,4.5,6.8,4.5,11.2v55.3l68.2-66.9
			c2.8-2.8,6.2-4.3,10.1-4.3c4,0,7.5,1.5,10.3,4.4s4.3,6.3,4.3,10.2c0,4-1.5,7.5-4.5,10.6l-37,36.5l47.5,77c1.4,2.7,2,5.2,2,7.5
			c0,4-1.4,7.5-4.1,10.3C573.5,172.9,570.2,174.3,566.1,174.3z"/>
	</g>
	<g>
		<path class="st1" d="M646.6,68.8h-39.7c-1.5,0-2.8-0.5-3.7-1.6c-1-1.1-1.4-2.3-1.4-3.8c0-4.7,0.9-8.5,2.8-11.7
			c1.9-3.1,4.2-5.8,7-7.9c2.8-2.1,5.8-3.9,9.1-5.4s6.3-2.9,9.1-4.3c2.8-1.4,5.1-2.9,7-4.5s2.8-3.7,2.8-6.1c0-1.5-0.4-2.7-1.2-3.6
			s-1.9-1.7-3.1-2.2c-1.2-0.6-2.5-1-3.9-1.2s-2.7-0.3-3.8-0.3c-1.8,0-3.4,0.1-4.8,0.3c-1.4,0.2-2.7,0.4-4,0.8s-2.6,0.9-3.8,1.5
			c-1.3,0.6-2.7,1.4-4.2,2.2c-0.9,0.5-1.7,0.7-2.6,0.7c-1.4,0-2.7-0.5-3.8-1.4c-1.1-1-1.7-2.2-1.7-3.6c0-1.1,0.3-2,0.9-2.8
			c0.6-0.8,1.3-1.5,2-2.1c1.5-1.1,3.1-2.1,4.9-2.9c1.8-0.8,3.7-1.4,5.6-1.9s3.9-0.8,5.8-1c2-0.2,3.8-0.3,5.6-0.3
			c2.6,0,5.3,0.4,8.1,1.1s5.4,1.8,7.7,3.3c2.4,1.5,4.3,3.3,5.8,5.5s2.3,4.8,2.3,7.8s-0.5,5.6-1.4,7.7c-1,2.1-2.3,4-3.9,5.5
			c-1.7,1.6-3.6,2.9-5.8,4.1c-2.2,1.2-4.5,2.3-6.9,3.5c-1.2,0.6-2.8,1.4-4.8,2.3c-2,0.9-3.9,2-5.8,3.2c-1.9,1.2-3.5,2.5-4.8,3.9
			c-1.4,1.4-2,2.9-2,4.5h30.9c1.5,0,2.8,0.5,3.7,1.5c1,1,1.4,2.3,1.4,3.7c0,1.5-0.5,2.7-1.5,3.8C649.3,68.3,648.1,68.8,646.6,68.8z"
			/>
	</g>
</g>
<g id="Layer_1_2_">
	<g id="Layer_1_1_">
		<g>
			<path class="st2" d="M117.7,162.4c-4.4,0-8.1-1.5-11.2-4.5s-4.6-6.7-4.6-11V94.6H31.4v52.2c0,4.4-1.5,8-4.6,11
				c-3,3-6.7,4.5-11.1,4.5s-8.1-1.5-11.1-4.5s-4.6-6.7-4.6-11v-129c0-4.3,1.5-8.1,4.6-11.2C7.6,3.5,11.3,2,15.7,2s8.1,1.5,11.1,4.6
				s4.6,6.8,4.6,11.2v47.4h70.5V17.8c0-4.3,1.5-8.1,4.6-11.2S113.3,2,117.7,2c4.3,0,8,1.5,11,4.6s4.5,6.8,4.5,11.2v129
				c0,4.4-1.5,8-4.5,11C125.8,160.9,122.1,162.4,117.7,162.4z"/>
			<path class="st2" d="M279.1,162.4c-3,0-5.6-0.8-7.9-2.3s-4.1-3.5-5.4-6L253,125.2h-67.8l-13,28.9c-1.2,2.5-2.9,4.5-5.3,6
				c-2.3,1.5-4.9,2.3-7.8,2.3c-4.2,0-7.7-1.5-10.5-4.4s-4.3-6.4-4.3-10.4c0-1.7,0.4-3.6,1.3-5.8l60.2-131.3c1.2-2.3,2.9-4.3,5.1-6
				c2.3-1.7,4.8-2.5,7.7-2.5c2.8,0,5.5,0.7,8,2.1s4.4,3.6,5.8,6.4l59.7,131.3c0.8,2,1.3,4,1.3,6c0,4-1.4,7.4-4.3,10.3
				C286.3,160.9,283,162.4,279.1,162.4z M218.9,49.9l-21.9,49h44L218.9,49.9z"/>
			<path class="st2" d="M433.7,135.5c-7.5,9-16.7,16-27.5,20.8c-10.8,4.9-22,7.3-33.5,7.3c-11.2,0-21.7-2.1-31.5-6.4
				c-9.8-4.3-18.3-10.1-25.4-17.4c-7.1-7.4-12.8-16-16.9-25.9s-6.2-20.4-6.2-31.6s2.1-21.7,6.2-31.5s9.8-18.3,16.9-25.6
				s15.6-13.1,25.4-17.3s20.3-6.4,31.5-6.4c9.4,0,18.7,1.5,28.1,4.4s17.4,7.9,24.1,14.9c1.5,1.7,2.7,3.4,3.6,5.1
				c0.9,1.8,1.4,3.8,1.4,6.1c0,4-1.5,7.4-4.4,10c-2.9,2.7-6.3,4-10.2,4c-2.7,0-5.3-0.8-7.9-2.5s-5.5-3.5-8.7-5.4s-6.9-3.7-11-5.4
				c-4.2-1.7-9.2-2.5-15.1-2.5c-7.4,0-14.1,1.4-20.1,4.1c-6,2.8-11.2,6.5-15.4,11.2c-4.3,4.7-7.5,10.2-9.8,16.6s-3.4,13.1-3.4,20.1
				s1.1,13.7,3.4,20.1s5.5,11.9,9.8,16.7s9.4,8.6,15.4,11.4c6,2.8,12.7,4.3,20.1,4.3s13.5-1.2,18.3-3.6c4.9-2.4,9-5.1,12.4-8
				s6.5-5.6,9.2-8s5.6-3.6,8.8-3.6c2,0,3.9,0.5,5.8,1.4c1.8,0.9,3.5,2.1,5,3.5s2.7,3.1,3.5,4.9s1.3,3.8,1.3,5.8
				c0,1.8-0.3,3.4-0.9,4.6C435.5,132.9,434.7,134.2,433.7,135.5z"/>
			<path class="st2" d="M566.3,162.4c-2.5,0-4.9-0.6-7.2-1.9c-2.3-1.3-4.1-3-5.4-5.1l-44.2-71c-4.9,4.9-9.8,9.7-14.8,14.6
				s-10,9.8-14.8,14.8v33.1c0,4.2-1.5,7.8-4.5,10.9c-3,3.1-6.7,4.6-11,4.6c-4.4,0-8.1-1.5-11.2-4.5s-4.6-6.7-4.6-11v-129
				c0-4.3,1.5-8.1,4.6-11.2s6.8-4.6,11.2-4.6c4.3,0,8,1.5,11,4.6s4.5,6.8,4.5,11.2v55.2l68-66.8c2.8-2.8,6.2-4.3,10-4.3
				c4,0,7.4,1.5,10.3,4.4c2.8,2.9,4.3,6.3,4.3,10.2c0,4-1.5,7.5-4.5,10.5l-36.9,36.4l47.4,76.8c1.3,2.7,2,5.2,2,7.5
				c0,4-1.4,7.4-4.1,10.3C573.7,160.9,570.3,162.4,566.3,162.4z"/>
		</g>
		<g>
			<path class="st3" d="M119.2,1.2c4.8,0,8.9,1.7,12.1,5c3.2,3.3,4.9,7.4,4.9,12.2v12.2v116.2V159c0,4.8-1.6,8.9-4.9,12.2
				c-3.2,3.3-7.3,5-12.1,5c-4.8,0-8.9-1.7-12.2-5c-3.3-3.3-5-7.4-5-12.2v-12.2v-38.2H34.4v38.2V159c0,4.8-1.6,8.9-4.9,12.2
				c-3.2,3.3-7.3,5-12.1,5s-8.9-1.7-12.2-5s-5-7.4-5-12.2v-12.2V30.7V18.4c0-4.8,1.7-8.9,5-12.2s7.4-5,12.2-5s8.9,1.7,12.1,5
				s4.9,7.4,4.9,12.2v12.2v33.5h67.5V30.7V18.4c0-4.8,1.7-8.9,5-12.2C110.3,2.9,114.3,1.2,119.2,1.2z M133.2,18.4
				c0-4-1.4-7.3-4.1-10c-2.8-2.7-6-4-9.9-4c-3.8,0-7.1,1.4-9.9,4.1s-4.1,6-4.1,9.9v12.2v36.5H31.4V30.7V18.4c0-4-1.4-7.3-4.1-10
				c-2.8-2.7-6-4-9.9-4c-3.8,0-7.1,1.4-9.9,4.1s-4.1,6-4.1,9.9v12.2v116.2c0,3.8,1.4,7.1,4.1,9.9s6,4.1,9.9,4.1
				c3.8,0,7.1-1.4,9.9-4.1s4.1-6,4.1-9.9v-41.2V93.4h73.8v12.2v41.2c0,3.8,1.4,7.1,4.1,9.9s6,4.1,9.9,4.1c3.8,0,7.1-1.4,9.9-4.1
				s4.1-6,4.1-9.9V30.7L133.2,18.4L133.2,18.4z M31.4,156.7c-3.2,4.8-7.8,7.2-14,7.2c-3.5,0-6.7-0.9-9.5-2.8
				c0.5,0.5,1.1,0.9,1.8,1.2c1.2,0.8,2.3,1.5,3.5,2c0.7,0.3,1.3,0.6,2,0.8s1.3,0.3,2,0.5c-0.7,0.2-1.3,0.2-2,0.1
				c-0.7-0.1-1.4-0.2-2.2-0.4c-1.3-0.2-2.8-0.7-4.2-1.5L7.3,163c0.5,0.8,1.2,1.5,2.2,2c1,1,2.2,1.8,3.5,2.2c1.3,0.8,2.8,1.2,4.2,1.2
				c-0.8,0.2-1.6,0.2-2.2,0.1c-0.7-0.1-1.4-0.2-2.2-0.4s-1.6-0.4-2.2-0.8c-0.7-0.3-1.3-0.7-2-1s-1.1-0.6-1.2-0.8
				c0.7,1,1.2,1.7,1.8,2c0.7,0.5,1.3,1,1.9,1.4c0.6,0.4,1.2,0.8,1.9,1.1c1.7,0.8,3.2,1.2,4.5,1.2c-1.8,0.3-3.4,0.2-4.8-0.2
				c-0.8-0.2-1.6-0.4-2.2-0.8c-0.7-0.3-1.3-0.7-2-1c2.7,2.3,5.8,3.5,9.2,3.5c3.8,0,7.1-1.4,9.9-4.1s4.1-6,4.1-9.9v-2H31.4z
				 M101.9,96.4H37.4l-2,0.2l21.5,1.5l-21,1.5l23.5,1.5l-23,1.2l25.2,1.5l-24.8,1.5l3.8,0.2h61.2L101.9,96.4L101.9,96.4z
				 M133.2,156.7c-3.5,4.8-8.2,7.2-14,7.2c-3.8,0-7.1-1-9.8-3c0.8,0.8,1.4,1.3,1.8,1.5c0.7,0.3,1.2,0.7,1.8,1c0.5,0.3,1.1,0.7,1.8,1
				c0.8,0.3,1.5,0.6,2.1,0.8s1.3,0.3,2.1,0.5c-1.2,0.2-2.6,0.1-4.2-0.2c-1.7-0.3-3.1-0.8-4.2-1.5c-0.5-0.2-1.1-0.4-1.8-0.8
				c1,1,1.8,1.7,2.2,2c1,1,2.2,1.8,3.5,2.2c1.7,0.8,3.2,1.2,4.5,1.2c-0.8,0.2-1.6,0.2-2.4,0.1c-0.8-0.1-1.5-0.2-2.4-0.4
				c-0.8-0.2-1.6-0.4-2.2-0.8c-0.7-0.3-1.3-0.7-2-1c-0.3-0.2-0.5-0.3-0.6-0.4c-0.1-0.1-0.3-0.2-0.6-0.4c0.5,0.8,1.2,1.5,2,2
				c1.2,1.2,2.3,2,3.5,2.5c1.7,0.8,3.2,1.2,4.5,1.2c-1.8,0.3-3.4,0.2-4.8-0.2c-1.7-0.3-2.9-0.8-3.8-1.5c2.5,2.2,5.5,3.2,9,3.2
				c3.8,0,7.1-1.4,9.9-4.1c2.8-2.7,4.1-6,4.1-9.9V156.7z"/>
			<path class="st3" d="M301.4,157.1c0.2,1.1,0.2,2.1,0.2,3.1c0,4.5-1.5,8.3-4.6,11.5s-6.8,4.8-11.1,4.8c-3.2,0-6-0.9-8.6-2.6
				c-2.6-1.8-4.5-4-5.9-6.9l-4-8.8c-0.8-1.2-1.5-2.3-2-3.5l-7-15.2h-65l-0.2,0.5L181,167c-1.3,2.8-3.3,5.1-5.9,6.9
				c-2.6,1.8-5.5,2.6-8.6,2.6c-4.3,0-8.1-1.6-11.2-4.8c-3.2-3.2-4.8-6.9-5-11.2c-4-3.2-6-7.4-6-12.8c0-2.3,0.5-4.5,1.5-6.5
				l59.8-130.5c1.3-2.8,3.3-5.1,5.9-6.9c2.6-1.8,5.4-2.6,8.4-2.6c3.3,0,6.3,0.8,9,2.5s4.7,3.9,6,6.8l4.2,9.2c1,1.3,1.7,2.4,2,3.2
				l59.5,130.8C300.9,154.9,301.3,156,301.4,157.1z M268.2,153.4c2.2,5,6.1,7.5,11.8,7.5c3.5,0,6.5-1.2,9-3.8s3.8-5.6,3.8-9.2
				c0-2.2-0.4-4-1.2-5.5L231.9,11.9c-1.2-2.3-2.8-4.2-5-5.5s-4.6-2-7.2-2c-2.3,0-4.5,0.7-6.6,2s-3.7,3.2-4.9,5.5l-59.8,130.8
				c-0.8,1.7-1.2,3.3-1.2,5c0,3.7,1.3,6.8,3.9,9.4c2.6,2.6,5.7,3.9,9.4,3.9c2.5,0,4.8-0.7,6.9-2c2.1-1.3,3.6-3.2,4.6-5.5l13.5-29.5
				H255L268.2,153.4z M166.4,173.2c2.5,0,4.8-0.7,7-2s3.8-3.2,4.8-5.5l10.2-22.8l-8.5,16l8.2-21.2l-9.2,17l7.8-20.2l-8.8,16
				l7.2-18.8l-10.2,23c-1.3,2.8-3.3,5.1-5.9,6.8c-2.6,1.7-5.5,2.5-8.6,2.5h-1.2h0.2l0.2,0.2h0.5c0.3,0,0.6,0,0.8,0.1
				s0.4,0.1,0.8,0.1h1.2h1.2c0.8-0.2,1.5-0.3,2.1-0.4c0.6-0.1,1.3-0.2,2.1-0.4c0.2-0.2,0.3-0.2,0.5-0.2c1.7-0.8,3.1-1.8,4.2-3
				c-0.3,0.3-0.6,0.7-0.9,1.1c-0.2,0.4-0.5,0.8-0.9,1.1c-0.3,0.3-0.7,0.6-1.1,0.9c-0.4,0.2-0.9,0.5-1.4,0.9h-0.2
				c-1.3,0.8-3,1.4-5,1.8c-0.2,0.2-0.5,0.2-1,0.2c-0.3,0.2-0.9,0.2-1.8,0.2h-0.8h-0.2c0,0.2,0.1,0.2,0.2,0.2h0.5
				c1,0.3,1.7,0.5,2,0.5h1h1.5c1.5,0,3-0.2,4.5-0.8c0.3,0,0.6-0.1,0.8-0.2c0.8-0.3,1.6-0.7,2.4-1.1c0.8-0.4,1.4-1,1.9-1.9
				c-0.7,1-1.2,1.8-1.8,2.2s-1.2,1.1-2.2,1.8c-0.2,0-0.3,0.1-0.5,0.2c-0.8,0.3-1.7,0.7-2.5,1s-1.7,0.6-2.5,0.8c-0.5,0-0.8,0.1-1,0.2
				h-1.8c-0.2,0-0.2,0-0.2,0.1s-0.1,0.1-0.2,0.1h-0.2h-0.5h0.2c0.3,0.2,0.7,0.2,1,0.2s0.7,0.1,1,0.2h1c0.3,0.2,0.9,0.2,1.8,0.2
				c1.7,0,3.2-0.2,4.8-0.8c0.2,0,0.3,0,0.4-0.1c0.1-0.1,0.2-0.1,0.4-0.1c0.8-0.3,1.7-0.8,2.5-1.2c0.8-0.5,1.5-1.2,2-2
				c-0.3,1-0.9,1.8-1.8,2.2c-0.5,0.5-1.2,1.1-2.2,1.8l-0.2,0.2c-1.5,0.8-3.2,1.4-5.2,1.8c-0.2,0.2-0.5,0.2-1,0.2c-0.3,0-0.7,0-1,0.1
				s-0.7,0.1-1,0.1h-0.2C164.1,173.1,165.1,173.2,166.4,173.2z M257.2,136.4l-4.2-9.2h-61.8H189l30.8,1.5l-29,1.5l32.8,1.5l-31,1.5
				l34.5,1.5l-32.8,1.5l1.8,0.2H257.2z M219.9,46.7l24.5,54h-48.5L219.9,46.7z M208.9,97.7l13.2-30l0.2-0.5L212.5,85l8.5-21l-9.2,17
				l7.8-20.2l-8.8,16l6-15.8l-16.2,36.8L208.9,97.7L208.9,97.7z M239.7,97.7l-13.8-30.5l-13.8,30.5H239.7z M285.9,173.2
				c3.5,0,6.5-1.2,9-3.8c2.5-2.5,3.8-5.6,3.8-9.2c0-1.8-0.3-3.7-1-5.5l-2.2-4.8c-0.5,4-2.2,7.3-5.1,10s-6.4,4-10.4,4h-1.2h0.2
				l0.2,0.2h0.5c0.3,0,0.6,0,0.9,0.1c0.2,0.1,0.5,0.1,0.9,0.1h1h1.2c0.8-0.2,1.6-0.3,2.2-0.4c0.7-0.1,1.3-0.2,2-0.4
				c0.2-0.2,0.4-0.2,0.8-0.2c1.8-0.8,3.2-1.8,4-3c-0.7,1-1.2,1.8-1.8,2.2c-0.3,0.3-0.7,0.6-1.1,0.9c-0.4,0.2-0.8,0.5-1.1,0.9h-0.2
				c-1.5,0.8-3.2,1.4-5.2,1.8c-0.2,0.2-0.5,0.2-1,0.2c-0.3,0.2-0.9,0.2-1.8,0.2h-0.8h-0.2l0.2,0.2h0.5c1,0.3,1.7,0.5,2,0.5h1h1.5
				c1.5,0,3-0.2,4.5-0.8c0.3,0,0.6-0.1,0.8-0.2c0.8-0.3,1.6-0.7,2.4-1.1c0.8-0.4,1.4-1,1.9-1.9c-0.7,1-1.3,1.8-1.8,2.2
				s-1.2,1.1-2.2,1.8c-0.2,0-0.2,0.1-0.2,0.2c-0.8,0.3-1.7,0.7-2.6,1s-1.8,0.6-2.6,0.8c-0.5,0-0.8,0.1-1,0.2h-1.8
				c-0.2,0-0.3,0-0.4,0.1s-0.2,0.1-0.4,0.1h-0.2c0.3,0.2,0.7,0.2,1,0.2s0.7,0.1,1,0.2h1c0.5,0.2,1.1,0.2,1.8,0.2
				c1.7,0,3.2-0.2,4.8-0.8c0.2,0,0.3,0,0.4-0.1s0.2-0.1,0.4-0.1c2.2-0.8,3.8-1.9,4.8-3.2c-0.7,1.2-1.3,1.9-2,2.2
				c-0.5,0.5-1.3,1.1-2.3,1.8c0,0.2-0.1,0.2-0.2,0.2c-1.3,0.8-3.1,1.4-5.2,1.8c-0.2,0.2-0.5,0.2-1,0.2c-0.3,0-0.6,0-0.9,0.1
				c-0.2,0.1-0.5,0.1-0.9,0.1h-0.5C283.6,173.1,284.6,173.2,285.9,173.2z"/>
			<path class="st3" d="M438.9,127.2c0,1.3-0.2,2.5-0.5,3.4s-0.7,1.8-1,2.6c1,2,1.5,4.1,1.5,6.2c0,2.3-0.4,4.2-1.1,5.6
				c-0.8,1.4-1.6,2.7-2.6,3.9c-7.2,8.8-16.2,15.8-27.2,20.9c-11,5.1-22.5,7.6-34.5,7.6c-11,0-21.5-2-31.4-6.1s-18.7-10-26.4-17.9
				c-7.7-7.8-13.5-16.8-17.6-26.8s-6.1-20.5-6.1-31.5c0-1.2,0-2.2,0.1-3.2s0.1-2,0.1-3s0-2-0.1-3s-0.1-2.1-0.1-3.2
				c0-11,2-21.5,6.1-31.5s10-18.8,17.6-26.5c7.7-7.8,16.5-13.8,26.4-18s20.4-6.2,31.4-6.2s21.1,1.8,30.2,5.2
				c9.2,3.5,16.8,8.4,22.8,14.8c3.7,3.7,5.5,7.8,5.5,12.2c0,2-0.4,4-1.2,6c0.8,2.2,1.2,4.2,1.2,6.2c0,4.3-1.6,8-4.8,11.1
				c-3.2,3.1-6.9,4.6-11.2,4.6c-2.3,0-4.6-0.6-6.9-1.8c-2.2-1.2-4.5-2.6-6.9-4.2c-3.3-2.3-7.2-4.6-11.8-6.8
				c-4.5-2.2-10.2-3.2-17-3.2c-6.3,0-12.2,1.1-17.6,3.2c-5.4,2.2-10.2,5.2-14.2,9.1c-4.1,3.9-7.4,8.6-10,14s-4.2,11.4-4.9,17.9
				c0.7,6.5,2.3,12.5,4.9,17.9s5.9,10.1,10,14.1s8.8,7.1,14.2,9.2c5.4,2.2,11.3,3.2,17.6,3.2c4.3,0,8.2-0.5,11.5-1.4s6.3-2.1,9-3.5
				c2.7-1.4,5-3,7.1-4.8s4-3.5,5.9-5.1c2.5-2.3,4.9-4.3,7.2-6c2.3-1.7,4.9-2.5,7.8-2.5c2.2,0,4.3,0.5,6.4,1.4s3.9,2.2,5.5,3.8
				c1.6,1.6,2.8,3.4,3.8,5.5C438.5,122.9,438.9,125,438.9,127.2z M432.9,134.6c0.8-1.2,1.5-2.3,2-3.4s0.8-2.4,0.8-4.1
				c0-3.5-1.4-6.7-4.2-9.6c-2.8-2.9-6-4.4-9.5-4.4c-2.3,0-4.5,0.8-6.4,2.2c-1.9,1.5-4,3.3-6.4,5.5c-2,1.8-4.1,3.7-6.2,5.5
				c-2.2,1.8-4.7,3.5-7.5,5s-6,2.7-9.6,3.6c-3.6,0.9-7.7,1.4-12.4,1.4c-7.2,0-13.8-1.4-19.9-4.1c-6.1-2.8-11.4-6.5-15.9-11.3
				s-8-10.4-10.5-17s-3.8-13.7-3.8-21.4c0-7.2,1.2-14,3.5-20.5s5.7-12.2,10-17c4.7-5.2,10.1-9.1,16.4-11.8s13-4,20.1-4
				c7.3,0,13.3,1.2,18,3.6c4.7,2.4,8.8,4.7,12.5,7.1c2.3,1.5,4.4,2.8,6.2,3.8c1.8,1,3.8,1.5,5.8,1.5c3.5,0,6.5-1.2,9-3.6
				c2.5-2.4,3.8-5.4,3.8-8.9s-1.4-6.8-4.2-10c-5.8-6-13.2-10.7-22-14s-18.5-5-29-5c-11,0-21.2,2-30.8,6.1
				c-9.5,4.1-17.8,9.7-24.9,16.8s-12.6,15.5-16.6,25.1s-6,20-6,30.9c0,11.1,2,21.5,6,31.2c4,9.6,9.5,18,16.6,25.2
				s15.4,12.8,24.9,16.8s19.8,6.1,30.8,6.1c11.5,0,22.5-2.4,33.1-7.3C417.1,149.7,425.9,143,432.9,134.6z M432.9,146.9
				c0.8-1.2,1.5-2.3,2-3.4c0.5-1.1,0.8-2.5,0.8-4.1c0-1.3-0.1-2.3-0.2-3l-0.2,0.2c-7.2,8.8-16.2,15.8-27.2,20.9
				c-11,5.1-22.5,7.6-34.5,7.6c-11,0-21.5-2-31.4-6.1s-18.7-10.1-26.4-18.1c-0.3-0.2-0.7-0.4-1-0.8c3.3,3.8,7.2,7.6,11.8,11.2
				c2.3,1.8,4.7,3.5,7,4.9s4.9,2.7,7.8,3.9c-5.5-2-10.7-4.7-15.5-8c-2.3-1.7-4.5-3.4-6.6-5.1c-2.1-1.8-4-3.6-5.9-5.6l0.5,0.5
				c2,2.3,4.1,4.5,6.2,6.7c2.2,2.1,4.5,4.1,7,5.9c2.5,1.8,5.1,3.5,7.8,5.1c2.7,1.6,5.4,2.9,8.2,4.1c-5.8-2-11.3-4.8-16.5-8.4
				c-5-3.3-9.7-7.3-14-12.1c0.3,0.7,0.7,1.1,1,1.2c3.8,5,8.6,9.5,14.2,13.7c2.7,1.8,5.4,3.6,8.2,5.2c2.8,1.7,5.8,3.1,8.8,4.2
				c-3.2-1-6.2-2.2-9.1-3.7s-5.8-3.1-8.6-4.9c-1.3-1-2.6-1.9-3.8-2.8c-1.2-0.9-2.4-1.9-3.8-3.1c7,6.8,15.1,12.1,24.4,15.9
				s19.1,5.6,29.6,5.6c11.5,0,22.5-2.5,33.1-7.4C417.1,162.2,425.9,155.4,432.9,146.9z M415.9,57.4c3.5,0,6.5-1.2,9-3.6
				s3.8-5.4,3.8-8.9c0-1.2-0.1-2.1-0.2-2.8c-3.2,4-7.3,6-12.5,6c-2.3,0-4.6-0.5-6.9-1.6s-4.5-2.4-6.9-4.1c-3.3-2.3-7.2-4.5-11.8-6.6
				s-10.2-3.2-17-3.2c-12,0-22.2,3.7-30.8,11l2.2-1.5l3.8-2.2c0.8-0.3,1.6-0.6,2.2-1c0.7-0.3,1.4-0.6,2.2-1c2-1,4.3-1.7,7-2.2
				c1-0.3,1.8-0.5,2.5-0.5c2.8-0.6,6.1-1,9.8-1c-1.5,0.1-3,0.3-4.5,0.3s-2.9,0.3-4.2,0.6c-1.5,0.3-3,0.6-4.4,1s-2.8,0.8-4.1,1.2
				c-2.5,1.2-5.1,2.7-7.8,4.5c-2.2,1.3-4.3,3.1-6.5,5.2l-0.2,0.2c-1,1-1.7,1.8-2,2.2c0.7-0.5,1.3-1,2-1.6s1.3-1.1,2-1.6
				c0.5-0.3,1-0.6,1.5-0.9s1-0.5,1.5-0.9c1.5-1,2.9-1.8,4.2-2.5c1.2-0.7,2.3-1.2,3.5-1.6c1.2-0.4,2.3-0.8,3.5-1.1
				c0.7-0.2,1.5-0.4,2.5-0.8c3.2-0.7,6.4-1.2,9.8-1.5c-2.5,0.2-5.2,0.7-8,1.5c-1.3,0.3-2.6,0.7-3.8,1.1c-1.2,0.4-2.4,0.9-3.8,1.4
				c-2.3,1-4.6,2.3-6.8,4c-2,1.3-4,3-6,5l-0.2,0.2c-0.3,0.3-0.6,0.6-0.8,0.9c-0.2,0.2-0.4,0.5-0.8,0.9c0.3-0.2,0.6-0.3,0.8-0.5
				c0.2-0.2,0.4-0.3,0.8-0.5c0.3-0.3,0.7-0.6,1-0.8s0.7-0.4,1-0.8c0.8-0.5,1.5-1,2.1-1.5s1.3-1,2.1-1.5c2-1,4.3-2.1,7-3.2l2.2-0.8
				c3.2-1,6.4-1.8,9.8-2.2c-1.2,0.3-2.3,0.6-3.5,0.9c-1.2,0.2-2.3,0.5-3.5,0.9c-2,0.7-4.2,1.6-6.5,2.8c-2,0.8-4.1,2.1-6.2,3.8
				c-2,1.3-3.7,2.9-5,4.5h-0.2c4.3-3.8,9.3-6.8,14.9-8.8s11.5-3,17.6-3c7.3,0,13.3,1.2,18,3.5s8.8,4.7,12.5,7
				c2.3,1.5,4.4,2.8,6.2,3.8C412,56.9,413.9,57.4,415.9,57.4z"/>
			<path class="st3" d="M581.7,147.9c0,2-0.4,4.1-1.2,6.2c0.8,2.2,1.2,4.2,1.2,6c0,4.5-1.5,8.3-4.6,11.5s-6.8,4.8-11.1,4.8
				c-2.8,0-5.5-0.7-7.9-2.1c-2.4-1.4-4.4-3.3-5.9-5.6l-43-69.2c-2.3,2.3-4.6,4.6-6.8,6.8c-2.2,2.2-4.4,4.3-6.8,6.5
				c-2.3,2.3-4.7,4.7-7.1,7s-4.8,4.7-7.1,7V147v12.2c0,4.8-1.7,8.9-5,12.2s-7.3,5-12,5c-3.8,0-7.2-1.1-10-3.2
				c-2.8-2.2-4.9-4.9-6.2-8.2c-0.3-0.7-0.5-1.2-0.5-1.5v-0.2c-0.2-0.7-0.3-1.3-0.4-1.9c-0.1-0.6-0.1-1.3-0.1-2.1v-12.2V30.7V18.4
				c0-4.8,1.7-8.9,5-12.2s7.4-5,12.2-5c4.7,0,8.7,1.7,12,5s5,7.4,5,12.2v12.2v39l65.2-63.8c1.3-1.5,3-2.7,5-3.5s4-1.2,6-1.2
				c4.5,0,8.3,1.6,11.4,4.8c3.1,3.2,4.6,6.9,4.6,11.2c0,2.5-0.4,4.6-1.2,6.2c0.8,1.5,1.2,3.6,1.2,6.2c0,4.3-1.6,8.1-4.8,11.2
				l-31.5,30.8l42,68C580.9,142.2,581.7,144.9,581.7,147.9z M565.9,160.9c3.5,0,6.5-1.2,9-3.8s3.8-5.6,3.8-9.2c0-2.2-0.7-4.3-2-6.5
				l-47.8-77.8l37.8-37.2c2.7-2.5,4-5.6,4-9.2c0-3.5-1.2-6.5-3.8-9s-5.6-3.8-9.2-3.8c-3.5,0-6.5,1.2-9,3.8l-70.2,69V30.7V18.4
				c0-3.8-1.4-7.1-4.1-9.9s-6-4.1-9.9-4.1c-3.8,0-7.2,1.4-10,4.1c-2.8,2.8-4.2,6-4.2,9.9v12.2v116.2c0,3.8,1.4,7.1,4.2,9.9
				c2.8,2.8,6.2,4.1,10,4.1s7.1-1.4,9.9-4.1s4.1-6,4.1-9.9v-21.5v-12.2l0.2-0.5c2.5-2.3,5-4.8,7.5-7.2s5-4.9,7.5-7.2l14.8-14.8
				l1.5-1.2l45,72.5c1.2,1.8,2.8,3.3,4.8,4.5C561.7,160.4,563.8,160.9,565.9,160.9z M478.4,156.7c-3.5,4.8-8.2,7.2-14,7.2
				c-3.3,0-6.2-0.8-8.8-2.2l0.2,0.2c0.7,0.3,1.2,0.7,1.8,1c0.5,0.3,1.1,0.7,1.8,1c0.8,0.3,1.5,0.6,2.1,0.8s1.3,0.3,2.1,0.5
				c-0.8,0-1.6,0-2.2,0c-0.7,0-1.3-0.2-2-0.5c-1.3-0.2-2.8-0.6-4.2-1.2c-0.3-0.2-0.6-0.3-0.9-0.5c-0.2-0.2-0.5-0.3-0.9-0.5l2.2,2.2
				c0.5,0.3,1,0.7,1.6,1.1c0.6,0.4,1.3,0.8,2.1,1.1c1.5,0.7,2.9,1.1,4.2,1.2c-0.8,0-1.6,0-2.4,0s-1.5-0.2-2.4-0.5
				c-1.3-0.2-2.8-0.7-4.2-1.5c-0.3-0.2-0.5-0.3-0.6-0.4c-0.1-0.1-0.3-0.2-0.6-0.4c0.3,0.3,0.7,0.7,1,1s0.7,0.7,1,1
				c0.8,0.8,2.1,1.7,3.8,2.5c1.5,0.7,2.9,1.1,4.2,1.2c-0.8,0.2-1.6,0.2-2.4,0.1c-0.8-0.1-1.5-0.2-2.4-0.4c-0.8-0.3-1.6-0.6-2.2-0.9
				c-0.7-0.2-1.4-0.6-2.2-1.1c2.8,2.8,6.2,4.2,10.2,4.2c3.8,0,7.1-1.4,9.9-4.1s4.1-6,4.1-9.9L478.4,156.7L478.4,156.7z M509.9,94.4
				l42,67.8h0.2c-0.3-0.3-0.5-0.6-0.6-0.9c-0.1-0.2-0.2-0.5-0.4-0.9l1.2-0.5c-0.3-0.3-0.7-0.8-1-1.5l1.5-0.5l-0.5-0.5
				c-0.3-0.3-0.6-0.8-0.8-1.2h0.5l-43-69c-2.3,2.2-4.6,4.3-6.8,6.5c-2.2,2.2-4.4,4.4-6.8,6.8c-1,1-2,2-3,3s-2.1,2-3.2,3L498,99
				l-10.8,12l9.8-8.2L487,114l8.8-7.2l-9.2,10.5l0.8-0.8c1-1,2-2,3.1-3s2.1-2,3.1-3c2.3-2.3,4.8-4.8,7.4-7.2c2.6-2.5,5-4.9,7.4-7.2
				L509.9,94.4z M554.9,156.2l-17-25l14.2,26.5L554.9,156.2z M554.4,157.7l-15-21.5l12.2,23.2L554.4,157.7z M570.7,29.7
				c0-1.3-0.1-2.2-0.2-2.8c-0.3,0.3-0.6,0.6-0.8,0.9c-0.2,0.2-0.4,0.5-0.8,0.9l-25.8,25.2l-2.8,2.8l12.5-10.8l-12.2,13.5l11-9.5
				l-11,12l10-8.2l-5.8,6.2l21.8-21.2C569.3,36.2,570.7,33.2,570.7,29.7z M553.7,159.4l-13-18l10.2,19.8L553.7,159.4z M552.9,160.9
				l-11-14.2l8.5,16L552.9,160.9z M552.4,162.7l-9-11l6.2,12.8L552.4,162.7z M565.9,173.2c3.5,0,6.5-1.2,9-3.8s3.8-5.6,3.8-9.2
				c0-0.3,0-0.7-0.1-1.1c-0.1-0.4-0.1-0.8-0.1-1.1c-3.2,4-7.3,6-12.5,6c-3.3,0-6.2-0.8-8.5-2.5c0.3,0.3,0.6,0.6,0.9,0.9
				s0.5,0.5,0.9,0.9c0.5,0.3,1,0.7,1.6,1s1.2,0.7,1.9,1s1.3,0.5,2,0.6s1.4,0.2,2.2,0.4c-0.8,0.2-1.6,0.2-2.2,0.1
				c-0.7-0.1-1.4-0.2-2.2-0.4c-1.3-0.3-2.8-0.8-4.2-1.5l-1.5-0.8c0.5,0.8,1.2,1.5,2.2,2c1,1,2.2,1.8,3.5,2.2
				c1.3,0.8,2.8,1.2,4.2,1.2c-0.8,0.2-1.6,0.2-2.2,0.1c-0.7-0.1-1.4-0.2-2.2-0.4c-1.7-0.3-3.1-0.9-4.2-1.8c-0.7-0.3-1.1-0.6-1.2-0.8
				c0.3,0.3,0.6,0.7,0.9,1c0.2,0.3,0.5,0.7,0.9,1c0.7,0.5,1.3,1,1.9,1.4c0.6,0.4,1.2,0.8,1.9,1.1c1.7,0.8,3.2,1.2,4.5,1.2
				c-1.8,0.3-3.4,0.2-4.8-0.2c-1.3-0.2-2.7-0.7-4-1.5C560.3,172.3,562.9,173.2,565.9,173.2z"/>
		</g>
	</g>
	<g id="Layer_2">
		<g>
			<g>
				<path class="st3" d="M554,163.6c3.2,0,3.2-5,0-5S550.8,163.6,554,163.6L554,163.6z"/>
			</g>
		</g>
		<g>
			<g>
				<path class="st3" d="M553.7,162.5c3.2,0,3.2-5,0-5S550.5,162.5,553.7,162.5L553.7,162.5z"/>
			</g>
		</g>
		<g>
			<g>
				<path class="st3" d="M553.3,161.1c3.2,0,3.2-5,0-5S550.1,161.1,553.3,161.1L553.3,161.1z"/>
			</g>
		</g>
		<g>
			<g>
				<path class="st3" d="M551.9,164c3.2,0,3.2-5,0-5S548.6,164,551.9,164L551.9,164z"/>
			</g>
		</g>
		<g>
			<g>
				<path class="st3" d="M551.9,165.7c3.2,0,3.2-5,0-5S548.6,165.7,551.9,165.7L551.9,165.7z"/>
			</g>
		</g>
		<g>
			<g>
				<path class="st3" d="M550.1,162.7c3.2,0,3.2-5,0-5C546.9,157.7,546.9,162.7,550.1,162.7L550.1,162.7z"/>
			</g>
		</g>
		<g>
			<g>
				<path class="st3" d="M551.4,164.8c3.2,0,3.2-5,0-5C548.1,159.8,548.1,164.8,551.4,164.8L551.4,164.8z"/>
			</g>
		</g>
		<g>
			<g>
				<path class="st3" d="M551.4,165.1c3.2,0,3.2-5,0-5C548.1,160.1,548.1,165.1,551.4,165.1L551.4,165.1z"/>
			</g>
		</g>
		<g>
			<g>
				<path class="st3" d="M551,164.3c3.2,0,3.2-5,0-5S547.8,164.3,551,164.3L551,164.3z"/>
			</g>
		</g>
		<g>
			<g>
				<path class="st3" d="M549.5,161.4c3.2,0,3.2-5,0-5S546.3,161.4,549.5,161.4L549.5,161.4z"/>
			</g>
		</g>
		<g>
			<g>
				<path class="st3" d="M549.1,160.5c3.2,0,3.2-5,0-5C545.9,155.5,545.9,160.5,549.1,160.5L549.1,160.5z"/>
			</g>
		</g>
		<g>
			<g>
				<path class="st3" d="M548.5,159.7c3.2,0,3.2-5,0-5S545.3,159.7,548.5,159.7L548.5,159.7z"/>
			</g>
		</g>
		<g>
			<g>
				<path class="st3" d="M547.8,158.8c3.2,0,3.2-5,0-5S544.6,158.8,547.8,158.8L547.8,158.8z"/>
			</g>
		</g>
		<g>
			<g>
				<path class="st3" d="M547,158.1c3.2,0,3.2-5,0-5S543.8,158.1,547,158.1L547,158.1z"/>
			</g>
		</g>
		<g>
			<g>
				<path class="st3" d="M546.5,157.3c3.2,0,3.2-5,0-5S543.2,157.3,546.5,157.3L546.5,157.3z"/>
			</g>
		</g>
		<g>
			<g>
				<path class="st3" d="M552.7,162.2c3.2,0,3.2-5,0-5S549.4,162.2,552.7,162.2L552.7,162.2z"/>
			</g>
		</g>
		<g>
			<g>
				<path class="st3" d="M553.3,161.6c3.2,0,3.2-5,0-5S550.1,161.6,553.3,161.6L553.3,161.6z"/>
			</g>
		</g>
		<g>
			<g>
				<path class="st3" d="M553.6,160.5c3.2,0,3.2-5,0-5C550.4,155.5,550.4,160.5,553.6,160.5L553.6,160.5z"/>
			</g>
		</g>
		<g>
			<g>
				<path class="st3" d="M552.6,158.3c3.2,0,3.2-5,0-5C549.4,153.3,549.4,158.3,552.6,158.3L552.6,158.3z"/>
			</g>
		</g>
		<g>
			<g>
				<path class="st3" d="M550.3,153.4c1.6,0,1.6-2.5,0-2.5S548.7,153.4,550.3,153.4L550.3,153.4z"/>
			</g>
		</g>
		<g>
			<g>
				<path class="st3" d="M552,152c-0.2,0-0.3,0-0.5,0.1c-0.7,0.1-1,0.9-0.9,1.5c0.2,0.7,0.9,1,1.5,0.9c0.2,0,0.3,0,0.5-0.1
					c0.7-0.1,1-0.9,0.9-1.5C553.4,152.2,552.7,151.9,552,152L552,152z"/>
			</g>
		</g>
		<g>
			<g>
				<path class="st3" d="M551.6,154.5c1.6,0,1.6-2.5,0-2.5S550,154.5,551.6,154.5L551.6,154.5z"/>
			</g>
		</g>
		<g>
			<g>
				<path class="st3" d="M552.9,152.8c0.1-1.3-0.6-2.5-1.7-3.2c-0.3-0.2-0.6-0.3-0.8-0.6s-0.3-0.6-0.4-0.9c-0.4-0.7-0.9-1.3-1.5-1.8
					c-1.2-1.1-2.9,0.6-1.8,1.8c0.4,0.4,0.8,0.8,1.1,1.3s0.4,1,0.8,1.4c0.6,0.7,1.9,0.8,1.8,2C550.3,154.5,552.8,154.4,552.9,152.8
					L552.9,152.8z"/>
			</g>
		</g>
		<g>
			<g>
				<path class="st3" d="M548.8,146.8c-0.3-1.3-1.1-2.1-1.9-3.1c-1-1.3-1.8-2.9-2.7-4.4c-0.8-1.4-3-0.1-2.2,1.3
					c0.8,1.3,1.5,2.7,2.4,3.9c0.6,0.9,1.7,1.8,2,2.9C546.8,149.1,549.2,148.4,548.8,146.8L548.8,146.8z"/>
			</g>
		</g>
		<g>
			<g>
				<path class="st3" d="M544,139.4c-1.2-2.9-2.4-5.8-4.1-8.5c-0.9-1.3-3-0.1-2.2,1.3c1.7,2.6,2.9,5.6,4.1,8.5
					C542.5,142.2,544.6,140.9,544,139.4L544,139.4z"/>
			</g>
		</g>
		<g>
			<g>
				<path class="st3" d="M544.2,154.8c1.6,0,1.6-2.5,0-2.5C542.6,152.3,542.6,154.8,544.2,154.8L544.2,154.8z"/>
			</g>
		</g>
		<g>
			<g>
				<path class="st3" d="M544.1,153.9c1.6,0,1.6-2.5,0-2.5S542.5,153.9,544.1,153.9L544.1,153.9z"/>
			</g>
		</g>
		<g>
			<g>
				<path class="st3" d="M545.3,154.5c1.6,0,1.6-2.5,0-2.5S543.7,154.5,545.3,154.5L545.3,154.5z"/>
			</g>
		</g>
		<g>
			<g>
				<path class="st3" d="M546.1,152.3c-1.4-1.9-2.9-3.8-4.3-5.7c-1-1.3-3.1,0-2.2,1.3c1.4,1.9,2.9,3.8,4.3,5.7
					C544.9,154.8,547.1,153.5,546.1,152.3L546.1,152.3z"/>
			</g>
		</g>
		<g>
			<g>
				<path class="st3" d="M541.1,148.6c1.6,0,1.6-2.5,0-2.5S539.5,148.6,541.1,148.6L541.1,148.6z"/>
			</g>
		</g>
		<g>
			<g>
				<path class="st3" d="M541.4,149.3c1.6,0,1.6-2.5,0-2.5C539.8,146.8,539.8,149.3,541.4,149.3L541.4,149.3z"/>
			</g>
		</g>
		<g>
			<g>
				<path class="st3" d="M541.7,149.4c1.6,0,1.6-2.5,0-2.5C540,146.9,540,149.4,541.7,149.4L541.7,149.4z"/>
			</g>
		</g>
		<g>
			<g>
				<path class="st3" d="M541.9,150.1c1.6,0,1.6-2.5,0-2.5C540.3,147.6,540.3,150.1,541.9,150.1L541.9,150.1z"/>
			</g>
		</g>
		<g>
			<g>
				<path class="st3" d="M542.3,150.3c1.6,0,1.6-2.5,0-2.5S540.7,150.3,542.3,150.3L542.3,150.3z"/>
			</g>
		</g>
		<g>
			<g>
				<path class="st3" d="M542.6,151.2c1.6,0,1.6-2.5,0-2.5S541,151.2,542.6,151.2L542.6,151.2z"/>
			</g>
		</g>
		<g>
			<g>
				<path class="st3" d="M542.9,151.2c1.6,0,1.6-2.5,0-2.5C541.3,148.7,541.3,151.2,542.9,151.2L542.9,151.2z"/>
			</g>
		</g>
		<g>
			<g>
				<path class="st3" d="M542.8,151.2c1.6,0,1.6-2.5,0-2.5S541.2,151.2,542.8,151.2L542.8,151.2z"/>
			</g>
		</g>
		<g>
			<g>
				<path class="st3" d="M542.8,151.1c1.6,0,1.6-2.5,0-2.5S541.2,151.1,542.8,151.1L542.8,151.1z"/>
			</g>
		</g>
		<g>
			<g>
				<path class="st3" d="M542.8,151c1.6,0,1.6-2.5,0-2.5S541.2,151,542.8,151L542.8,151z"/>
			</g>
		</g>
		<g>
			<g>
				<path class="st3" d="M543,151.3c1.6,0,1.6-2.5,0-2.5C541.3,148.8,541.3,151.3,543,151.3L543,151.3z"/>
			</g>
		</g>
		<g>
			<g>
				<path class="st3" d="M543,151.4c1.6,0,1.6-2.5,0-2.5S541.4,151.4,543,151.4L543,151.4z"/>
			</g>
		</g>
		<g>
			<g>
				<path class="st3" d="M543.1,151.5c1.6,0,1.6-2.5,0-2.5S541.5,151.5,543.1,151.5L543.1,151.5z"/>
			</g>
		</g>
		<g>
			<g>
				<path class="st3" d="M543.2,151.6c1.6,0,1.6-2.5,0-2.5C541.6,149.1,541.6,151.6,543.2,151.6L543.2,151.6z"/>
			</g>
		</g>
		<g>
			<path class="st4" d="M646.3,64.2h-39.8c-1.5,0-2.8-0.5-3.8-1.6s-1.4-2.3-1.4-3.8c0-4.7,0.9-8.6,2.8-11.7c1.9-3.1,4.2-5.8,7-7.9
				c2.8-2.1,5.8-3.9,9.1-5.4s6.3-2.9,9.1-4.3s5.1-2.9,7-4.5s2.8-3.7,2.8-6.1c0-1.5-0.4-2.7-1.2-3.6c-0.8-0.9-1.9-1.7-3.1-2.2
				c-1.2-0.6-2.5-1-3.9-1.2s-2.7-0.4-3.8-0.4c-1.8,0-3.4,0.1-4.8,0.2c-1.4,0.2-2.8,0.5-4,0.9s-2.6,0.9-3.8,1.6
				c-1.3,0.6-2.7,1.4-4.2,2.2c-0.9,0.5-1.7,0.7-2.6,0.7c-1.4,0-2.7-0.5-3.8-1.4c-1.1-1-1.7-2.2-1.7-3.7c0-1.1,0.3-2,0.9-2.8
				c0.6-0.8,1.3-1.6,2-2.2c1.5-1.1,3.1-2.1,4.9-2.9c1.8-0.8,3.7-1.4,5.6-1.9c1.9-0.5,3.9-0.8,5.8-1c2-0.2,3.9-0.3,5.7-0.3
				c2.6,0,5.3,0.4,8.1,1.1s5.4,1.8,7.8,3.3c2.4,1.5,4.3,3.3,5.9,5.5c1.5,2.2,2.3,4.9,2.3,7.9s-0.5,5.6-1.5,7.7s-2.3,4-4,5.5
				c-1.7,1.6-3.6,2.9-5.8,4.1c-2.2,1.2-4.5,2.4-6.9,3.5c-1.2,0.6-2.8,1.4-4.8,2.3c-2,0.9-3.9,2-5.8,3.2c-1.9,1.2-3.5,2.5-4.8,4
				c-1.4,1.4-2,2.9-2,4.5h31c1.5,0,2.8,0.5,3.8,1.6c1,1,1.4,2.3,1.4,3.8s-0.5,2.7-1.5,3.8C649,63.7,647.7,64.2,646.3,64.2z"/>
		</g>
		<g>
			<path class="st3" d="M652.1,58.8c0,0.8-0.2,1.6-0.5,2.5c0.3,0.8,0.5,1.6,0.5,2.5c0,1.6-0.6,3-1.7,4.1c-1.1,1.2-2.5,1.8-4.1,1.8
				h-39.8c-1.3,0-2.5-0.4-3.6-1.3s-1.8-2-2.1-3.3c-0.1-0.3-0.1-0.8-0.1-1.4c0-0.6,0-1.2,0-1.8s0.1-1.1,0.2-1.6
				c-0.1-0.3-0.2-0.8-0.2-1.5c0-4.2,0.7-7.8,2.2-10.8s3.3-5.5,5.7-7.6c2.3-2.1,4.8-3.9,7.6-5.4s5.5-2.8,8.2-4c3.2-1.5,6-2.9,8.5-4.4
				c2.5-1.4,4.2-3.2,5-5.2c-0.4-0.9-1-1.6-1.9-2.1c-0.9-0.6-1.8-1-2.8-1.4s-2.1-0.6-3.2-0.8c-1.1-0.1-2.1-0.2-3-0.2
				c-1.8,0-3.4,0.1-4.8,0.2c-1.4,0.2-2.8,0.5-4,0.9s-2.5,0.9-3.7,1.5s-2.6,1.3-4,2.1c-0.4,0.3-0.8,0.5-1.3,0.6
				c-0.5,0.2-1,0.2-1.6,0.2c-1.3,0-2.5-0.4-3.6-1.2c-1.1-0.8-1.8-1.8-2.2-2.9c-0.1-0.1-0.1-0.2-0.1-0.3c0-0.1,0-0.2-0.1-0.3
				c0-0.1,0-0.3,0-0.5s0-0.4,0-0.6c0-0.9,0.2-1.7,0.6-2.5c-0.4-0.7-0.6-1.5-0.6-2.4c0-1.9,1-3.7,3.1-5.4c1.8-1.5,3.8-2.6,6-3.4
				s4.3-1.5,6.4-1.9c2.1-0.4,4-0.7,5.8-0.8s3.2-0.2,4.3-0.2c2.5,0,5.2,0.4,8.2,1.1c2.9,0.7,5.6,1.9,8,3.4s4.5,3.5,6.1,5.8
				s2.5,5,2.5,8.2c0,0.5,0,1,0,1.5c0,0.4-0.1,0.8-0.2,1.2c0.1,0.3,0.1,0.7,0.2,1.1c0,0.4,0,0.8,0,1.1c0,3.1-0.5,5.8-1.5,8
				s-2.4,4.1-4.2,5.8c-1.7,1.6-3.7,3.1-5.9,4.2c-2.2,1.2-4.5,2.4-6.9,3.5c-0.3,0.1-0.5,0.2-0.8,0.4c-0.2,0.1-0.5,0.2-0.9,0.4
				c-0.9,0.4-1.8,0.9-2.9,1.4c-1.1,0.5-2.2,1.1-3.2,1.7c-1.1,0.6-2.2,1.2-3.2,1.9c-1.1,0.7-2,1.4-2.9,2.1h27.1c1.7,0,3,0.6,4.1,1.7
				C651.5,55.7,652.1,57.1,652.1,58.8z M649.5,62.1c0.9-0.9,1.3-2.1,1.3-3.4c0-1.3-0.4-2.4-1.3-3.3c-0.9-0.9-2-1.3-3.3-1.3h-31.6
				v-0.6c0-1.5,0.6-3,1.8-4.4s2.6-2.7,4.2-3.8c1.7-1.2,3.5-2.2,5.4-3.2s3.5-1.8,4.9-2.4c0.3-0.1,0.6-0.2,0.9-0.4
				c0.2-0.1,0.5-0.2,0.6-0.4c2.4-1.1,4.7-2.3,6.9-3.4c2.2-1.2,4-2.5,5.6-4s2.9-3.3,3.9-5.3c1-2.1,1.5-4.6,1.5-7.5
				c0-3-0.8-5.6-2.3-7.7c-1.5-2.2-3.4-4-5.8-5.4c-2.3-1.4-4.8-2.4-7.6-3.1s-5.3-1-7.8-1c-4.4,0-8.5,0.5-12.3,1.6
				c-3.8,1-6.9,2.5-9.3,4.4c-1.8,1.4-2.7,2.9-2.7,4.5c0,1.2,0.5,2.2,1.5,3.2c1,0.9,2.1,1.3,3.4,1.3c0.7,0,1.5-0.2,2.3-0.6
				c1.5-0.9,2.8-1.6,4.1-2.2c1.3-0.6,2.5-1.2,3.8-1.6c1.3-0.4,2.7-0.7,4.2-0.9s3.2-0.3,5-0.3c1.2,0,2.5,0.1,4,0.3s2.9,0.6,4.2,1.2
				c1.3,0.6,2.4,1.4,3.2,2.4c0.9,1,1.3,2.3,1.3,3.9c0,1.7-0.4,3.1-1.2,4.4s-1.9,2.4-3.2,3.4c-1.4,1-2.9,2-4.7,2.9s-3.7,1.8-5.7,2.6
				c-2.7,1.3-5.5,2.6-8.2,4s-5.2,3.1-7.4,5.1s-4,4.4-5.4,7.2s-2,6.2-2,10.2c0,1.3,0.5,2.5,1.3,3.4c0.9,0.9,2,1.4,3.2,1.4H646
				C647.5,63.5,648.6,63,649.5,62.1z M649.5,67.1c0.9-0.9,1.3-2,1.3-3.3c0-0.2,0-0.4,0-0.6c0-0.2,0-0.4,0-0.5
				c-1.2,1.4-2.7,2.1-4.5,2.1h-39.8c-0.2,0-0.4,0-0.6-0.1c-0.2-0.1-0.4-0.1-0.6-0.1c0.4,0.2,0.7,0.2,0.9,0.2c0.1,0,0.1,0,0.2,0.1
				c0.3,0.1,0.8,0.1,1.5,0.1c0.1,0,0.3,0,0.7,0s0.6,0,0.7,0h0.1c0.1,0,0.2,0,0.5,0s0.6,0,1,0.1c0.4,0,0.7,0,1,0s0.5,0,0.5,0
				c-0.2,0.1-0.7,0.1-1.5,0.1s-1.3,0.1-1.4,0.1h-0.3c-0.1,0-0.4,0-0.8,0c-0.4,0-0.7,0-0.8,0h-0.9H606c-0.2-0.1-0.4-0.1-0.5-0.1
				c-0.2,0-0.3,0-0.5-0.1c-0.7-0.1-1.2-0.3-1.5-0.6c0,0.1,0,0.1,0,0.1s0,0,0,0.1c0.1,0,0.2,0,0.2,0.1c0.9,0.6,1.8,0.9,2.6,1
				c0.1,0.1,0.1,0.1,0.2,0.1c0.3,0.1,0.6,0.1,0.9,0.1c0.2,0,0.5,0,0.8,0c0.1,0.1,0.4,0.1,0.8,0.1c0.4,0,0.6,0,0.8,0h0.1
				c0.3,0.1,0.9,0.1,1.6,0.1c0.7,0,1.3,0.1,1.6,0.1c-0.3,0-0.9,0-1.5,0c-0.7,0-1.2,0.1-1.6,0.1h-0.4c-0.1,0-0.4,0-0.9,0.1
				c-0.4,0-0.7,0-0.8,0h-1c-0.4,0-0.7,0-0.8-0.1c-0.3,0-0.6-0.1-1-0.2c-0.2-0.1-0.4-0.1-0.7-0.1c-0.2,0-0.5-0.1-0.6-0.3
				c0.1,0,0.1,0,0.2,0.1c0.7,0.5,1.7,0.9,2.8,1c0.1,0.1,0.2,0.1,0.3,0.1c0.3,0.1,0.5,0.1,0.8,0.1s0.5,0,0.8,0
				c0.2,0.1,0.5,0.1,0.8,0.1s0.6,0,0.8,0h0.1c0.5,0.1,1,0.1,1.7,0.2c0.7,0,1.2,0.1,1.7,0.1c-0.5,0.1-1,0.1-1.7,0.1
				c-0.6,0-1.2,0-1.8,0H610c-0.3,0.1-0.6,0.1-0.9,0.1c-0.4,0-0.7,0-1,0c-0.2,0-0.4,0-0.6,0c-0.2,0-0.4,0-0.5,0h-0.9
				c-0.3,0-0.6-0.1-1-0.2s-0.7-0.2-1-0.3c0.8,0.4,1.7,0.7,2.6,0.9h39.6C647.5,68.5,648.6,68,649.5,67.1z M627,15.7
				c0.9,0,1.8,0.1,2.9,0.2c1.1,0.1,2.1,0.4,3.2,0.7c1,0.3,2,0.8,3,1.2c1,0.5,1.8,1.1,2.3,2c0-0.1,0-0.3,0-0.5s0-0.4,0-0.5
				c0-1.3-0.4-2.4-1.2-3.3c-0.8-0.9-1.8-1.6-3-2.1c-1.2-0.5-2.4-0.9-3.8-1.1c-1.3-0.2-2.5-0.3-3.6-0.3c-1.8,0-3.4,0.1-4.8,0.3
				c-1.4,0.2-2.8,0.5-4,0.9s-2.5,0.9-3.7,1.5s-2.6,1.3-4,2.1c-0.4,0.3-0.8,0.5-1.3,0.6c-0.5,0.2-1,0.2-1.6,0.2
				c-1.2,0-2.2-0.3-3.1-0.9v0.1c0.3,0.2,0.7,0.4,1,0.6s0.7,0.3,1,0.4h0.1c0.4,0.1,0.7,0.2,1,0.2h0.1c0.2,0.1,0.6,0,1.1-0.1h0.1
				c0.8-0.3,1.5-0.6,2.2-0.9c-0.7,0.5-1.5,0.9-2.2,1.2c-0.4,0.2-0.8,0.3-1.2,0.3c-0.3,0.1-0.8,0-1.3-0.1c-0.7-0.1-1.3-0.3-1.9-0.6
				c0.7,0.6,1.3,1,2,1.1h0.1c0.4,0.1,0.7,0.2,1,0.3h0.2c0.1,0,0.3,0,0.5-0.1c0.2,0,0.4,0,0.6,0c0-0.1,0-0.1,0.1-0.1
				c0.9-0.2,1.6-0.5,2.3-0.9c-0.3,0.3-0.7,0.5-1,0.8c-0.4,0.2-0.8,0.4-1.2,0.5c-0.4,0.2-0.8,0.3-1.3,0.3c-0.5,0.1-1,0.1-1.4,0
				c-0.3-0.1-0.5-0.2-0.8-0.3c-0.3-0.1-0.5-0.2-0.8-0.3c0.5,0.4,1.1,0.7,1.8,0.9h0.1c0.4,0.2,0.8,0.3,1.1,0.3h0.1c0.2,0,0.4,0,0.6,0
				c0.2,0,0.4,0,0.6,0l0.1-0.1c0.4-0.1,0.8-0.3,1.2-0.4s0.8-0.3,1.2-0.6c-0.7,0.6-1.5,1.1-2.4,1.5c-0.3,0.1-0.7,0.3-1.4,0.4
				c-0.7,0-1.2,0-1.5-0.1c-0.2-0.1-0.4-0.2-0.6-0.2c-0.2,0-0.4-0.1-0.5-0.1c0.5,0.3,1,0.5,1.3,0.6s0.7,0.1,1.2,0.1
				c0.7,0,1.5-0.2,2.3-0.6c1.5-0.9,2.8-1.6,4.1-2.2s2.5-1.1,3.8-1.6c1.3-0.4,2.7-0.7,4.2-0.9C623.4,15.8,625.1,15.7,627,15.7z
				 M632.5,43.9c2.2-1.1,4.3-2.1,6.3-3.2c2-1.1,3.8-2.3,5.4-3.6c1.6-1.3,2.9-2.9,4-4.6c1-1.8,1.7-3.9,2-6.2
				c-0.7,1.7-1.7,3.3-2.9,4.6s-2.6,2.5-4.1,3.6s-3.1,2.1-4.8,3s-3.5,1.8-5.3,2.6c-0.3,0.1-0.5,0.3-0.8,0.4c-0.2,0.1-0.5,0.3-0.9,0.4
				c-1.3,0.6-2.8,1.3-4.5,2.1s-3.3,1.8-4.9,2.9c-1.6,1.1-2.9,2.2-4.1,3.4c-1.1,1.2-1.8,2.4-2,3.7h1.4c0.9-0.9,1.9-1.7,3-2.5
				c1.2-0.8,2.4-1.6,3.6-2.3c1.2-0.7,2.4-1.3,3.6-1.9c1.2-0.6,2.3-1.1,3.3-1.5c0.3-0.1,0.6-0.2,0.9-0.4
				C632.1,44.1,632.3,44,632.5,43.9z"/>
		</g>
	</g>
</g>
<g>
	<path class="st3" d="M15.2,215.2c-0.5,0-0.8-0.2-1.2-0.5c-0.3-0.3-0.5-0.7-0.5-1.1v-5.4H6.3v5.4c0,0.5-0.2,0.8-0.5,1.1
		c-0.3,0.3-0.7,0.5-1.2,0.5s-0.8-0.2-1.2-0.5C3.2,214.4,3,214,3,213.6v-13.4c0-0.5,0.2-0.8,0.5-1.2c0.3-0.3,0.7-0.5,1.2-0.5
		s0.8,0.2,1.2,0.5c0.3,0.3,0.5,0.7,0.5,1.2v4.9h7.3v-4.9c0-0.5,0.2-0.8,0.5-1.2c0.3-0.3,0.7-0.5,1.2-0.5s0.8,0.2,1.1,0.5
		c0.3,0.3,0.5,0.7,0.5,1.2v13.4c0,0.5-0.2,0.8-0.5,1.1C16.1,215,15.7,215.2,15.2,215.2z"/>
	<path class="st3" d="M33.5,215.2c-0.3,0-0.6-0.1-0.8-0.2c-0.2-0.2-0.4-0.4-0.6-0.6l-1.3-3h-7l-1.4,3c-0.1,0.3-0.3,0.5-0.5,0.6
		c-0.2,0.2-0.5,0.2-0.8,0.2c-0.4,0-0.8-0.2-1.1-0.5c-0.3-0.3-0.4-0.7-0.4-1.1c0-0.2,0-0.4,0.1-0.6l6.2-13.6c0.1-0.2,0.3-0.5,0.5-0.6
		c0.2-0.2,0.5-0.3,0.8-0.3c0.3,0,0.6,0.1,0.8,0.2c0.3,0.1,0.5,0.4,0.6,0.7l6.2,13.6c0.1,0.2,0.1,0.4,0.1,0.6c0,0.4-0.1,0.8-0.4,1.1
		C34.3,215,33.9,215.2,33.5,215.2z M27.3,203.5l-2.3,5.1h4.6L27.3,203.5z"/>
	<path class="st3" d="M50.6,212.4c-0.8,0.9-1.7,1.7-2.8,2.2c-1.1,0.5-2.3,0.8-3.5,0.8c-1.2,0-2.2-0.2-3.3-0.7c-1-0.4-1.9-1-2.6-1.8
		c-0.7-0.8-1.3-1.7-1.8-2.7c-0.4-1-0.6-2.1-0.6-3.3s0.2-2.2,0.6-3.3c0.4-1,1-1.9,1.8-2.7c0.7-0.8,1.6-1.4,2.6-1.8
		c1-0.4,2.1-0.7,3.3-0.7c1,0,1.9,0.2,2.9,0.5c1,0.3,1.8,0.8,2.5,1.5c0.2,0.2,0.3,0.4,0.4,0.5c0.1,0.2,0.1,0.4,0.1,0.6
		c0,0.4-0.2,0.8-0.5,1c-0.3,0.3-0.7,0.4-1.1,0.4c-0.3,0-0.6-0.1-0.8-0.3c-0.3-0.2-0.6-0.4-0.9-0.6c-0.3-0.2-0.7-0.4-1.1-0.6
		c-0.4-0.2-1-0.3-1.6-0.3c-0.8,0-1.5,0.1-2.1,0.4s-1.2,0.7-1.6,1.2c-0.4,0.5-0.8,1.1-1,1.7c-0.2,0.7-0.4,1.4-0.4,2.1
		s0.1,1.4,0.4,2.1c0.2,0.7,0.6,1.2,1,1.7c0.4,0.5,1,0.9,1.6,1.2s1.3,0.4,2.1,0.4c0.8,0,1.4-0.1,1.9-0.4c0.5-0.3,0.9-0.5,1.3-0.8
		c0.4-0.3,0.7-0.6,0.9-0.8c0.3-0.3,0.6-0.4,0.9-0.4c0.2,0,0.4,0,0.6,0.1c0.2,0.1,0.4,0.2,0.5,0.4c0.2,0.1,0.3,0.3,0.4,0.5
		c0.1,0.2,0.1,0.4,0.1,0.6c0,0.2,0,0.4-0.1,0.5C50.8,212.1,50.7,212.3,50.6,212.4z"/>
	<path class="st3" d="M65.9,215.2c-0.3,0-0.5-0.1-0.7-0.2c-0.2-0.1-0.4-0.3-0.6-0.5l-4.6-7.4c-0.5,0.5-1,1-1.5,1.5
		c-0.5,0.5-1,1-1.5,1.5v3.4c0,0.4-0.2,0.8-0.5,1.1c-0.3,0.3-0.7,0.5-1.1,0.5s-0.8-0.2-1.2-0.5c-0.3-0.3-0.5-0.7-0.5-1.1v-13.4
		c0-0.5,0.2-0.8,0.5-1.2c0.3-0.3,0.7-0.5,1.2-0.5s0.8,0.2,1.1,0.5c0.3,0.3,0.5,0.7,0.5,1.2v5.7l7-6.9c0.3-0.3,0.6-0.4,1-0.4
		c0.4,0,0.8,0.2,1.1,0.5c0.3,0.3,0.4,0.7,0.4,1.1c0,0.4-0.2,0.8-0.5,1.1l-3.8,3.8l4.9,8c0.1,0.3,0.2,0.5,0.2,0.8
		c0,0.4-0.1,0.8-0.4,1.1C66.6,215,66.3,215.2,65.9,215.2z"/>
	<path class="st3" d="M89,201.8h-4.5v11.7c0,0.5-0.2,0.8-0.5,1.1c-0.3,0.3-0.7,0.5-1.2,0.5c-0.5,0-0.8-0.2-1.2-0.5
		c-0.3-0.3-0.5-0.7-0.5-1.1v-11.7h-4.5c-0.4,0-0.8-0.1-1.1-0.4c-0.3-0.3-0.4-0.6-0.4-1.1c0-0.4,0.1-0.8,0.4-1.1s0.6-0.4,1.1-0.4H89
		c0.4,0,0.8,0.1,1.1,0.4c0.3,0.3,0.5,0.7,0.5,1.1c0,0.4-0.2,0.8-0.5,1.1C89.8,201.7,89.4,201.8,89,201.8z"/>
	<path class="st3" d="M105.5,215.2c-0.5,0-0.8-0.2-1.2-0.5c-0.3-0.3-0.5-0.7-0.5-1.1v-5.4h-7.3v5.4c0,0.5-0.2,0.8-0.5,1.1
		c-0.3,0.3-0.7,0.5-1.2,0.5s-0.8-0.2-1.2-0.5c-0.3-0.3-0.5-0.7-0.5-1.1v-13.4c0-0.5,0.2-0.8,0.5-1.2c0.3-0.3,0.7-0.5,1.2-0.5
		s0.8,0.2,1.2,0.5c0.3,0.3,0.5,0.7,0.5,1.2v4.9h7.3v-4.9c0-0.5,0.2-0.8,0.5-1.2c0.3-0.3,0.7-0.5,1.2-0.5s0.8,0.2,1.1,0.5
		c0.3,0.3,0.5,0.7,0.5,1.2v13.4c0,0.5-0.2,0.8-0.5,1.1C106.3,215,106,215.2,105.5,215.2z"/>
	<path class="st3" d="M121.5,215h-9.2c-0.5,0-0.8-0.2-1.2-0.5c-0.3-0.3-0.5-0.7-0.5-1.2v-12.9c0-0.5,0.2-0.8,0.5-1.1
		c0.3-0.3,0.7-0.5,1.2-0.5h8.9c0.4,0,0.8,0.1,1.1,0.4s0.5,0.6,0.5,1.1c0,0.4-0.2,0.8-0.5,1.1c-0.3,0.3-0.7,0.4-1.1,0.4h-7.2v3.5h4
		c0.4,0,0.8,0.1,1.1,0.4c0.3,0.3,0.4,0.6,0.4,1.1c0,0.4-0.1,0.8-0.4,1.1c-0.3,0.3-0.7,0.4-1.1,0.4h-4v3.6h7.6c0.4,0,0.8,0.2,1.1,0.5
		c0.3,0.3,0.5,0.7,0.5,1.1c0,0.4-0.2,0.8-0.5,1.1C122.3,214.8,121.9,215,121.5,215z"/>
	<path class="st3" d="M145.5,215.2c-0.5,0-0.8-0.2-1.2-0.5c-0.3-0.3-0.5-0.7-0.5-1.1v-5.4h-7.3v5.4c0,0.5-0.2,0.8-0.5,1.1
		c-0.3,0.3-0.7,0.5-1.2,0.5s-0.8-0.2-1.2-0.5c-0.3-0.3-0.5-0.7-0.5-1.1v-13.4c0-0.5,0.2-0.8,0.5-1.2c0.3-0.3,0.7-0.5,1.2-0.5
		s0.8,0.2,1.2,0.5c0.3,0.3,0.5,0.7,0.5,1.2v4.9h7.3v-4.9c0-0.5,0.2-0.8,0.5-1.2c0.3-0.3,0.7-0.5,1.2-0.5s0.8,0.2,1.1,0.5
		c0.3,0.3,0.5,0.7,0.5,1.2v13.4c0,0.5-0.2,0.8-0.5,1.1C146.4,215,146,215.2,145.5,215.2z"/>
	<path class="st3" d="M163.8,215.2c-0.3,0-0.6-0.1-0.8-0.2c-0.2-0.2-0.4-0.4-0.6-0.6l-1.3-3h-7l-1.4,3c-0.1,0.3-0.3,0.5-0.5,0.6
		c-0.2,0.2-0.5,0.2-0.8,0.2c-0.4,0-0.8-0.2-1.1-0.5c-0.3-0.3-0.4-0.7-0.4-1.1c0-0.2,0-0.4,0.1-0.6l6.2-13.6c0.1-0.2,0.3-0.5,0.5-0.6
		c0.2-0.2,0.5-0.3,0.8-0.3c0.3,0,0.6,0.1,0.8,0.2c0.3,0.1,0.5,0.4,0.6,0.7l6.2,13.6c0.1,0.2,0.1,0.4,0.1,0.6c0,0.4-0.1,0.8-0.4,1.1
		C164.5,215,164.2,215.2,163.8,215.2z M157.6,203.5l-2.3,5.1h4.6L157.6,203.5z"/>
	<path class="st3" d="M181.9,212.4c-0.8,0.9-1.7,1.7-2.8,2.2c-1.1,0.5-2.3,0.8-3.5,0.8c-1.2,0-2.2-0.2-3.3-0.7c-1-0.4-1.9-1-2.6-1.8
		c-0.7-0.8-1.3-1.7-1.8-2.7c-0.4-1-0.6-2.1-0.6-3.3s0.2-2.2,0.6-3.3c0.4-1,1-1.9,1.8-2.7c0.7-0.8,1.6-1.4,2.6-1.8
		c1-0.4,2.1-0.7,3.3-0.7c1,0,1.9,0.2,2.9,0.5c1,0.3,1.8,0.8,2.5,1.5c0.2,0.2,0.3,0.4,0.4,0.5c0.1,0.2,0.1,0.4,0.1,0.6
		c0,0.4-0.2,0.8-0.5,1c-0.3,0.3-0.7,0.4-1.1,0.4c-0.3,0-0.6-0.1-0.8-0.3c-0.3-0.2-0.6-0.4-0.9-0.6c-0.3-0.2-0.7-0.4-1.1-0.6
		c-0.4-0.2-1-0.3-1.6-0.3c-0.8,0-1.5,0.1-2.1,0.4s-1.2,0.7-1.6,1.2c-0.4,0.5-0.8,1.1-1,1.7c-0.2,0.7-0.4,1.4-0.4,2.1
		s0.1,1.4,0.4,2.1c0.2,0.7,0.6,1.2,1,1.7c0.4,0.5,1,0.9,1.6,1.2s1.3,0.4,2.1,0.4c0.8,0,1.4-0.1,1.9-0.4c0.5-0.3,0.9-0.5,1.3-0.8
		c0.4-0.3,0.7-0.6,0.9-0.8c0.3-0.3,0.6-0.4,0.9-0.4c0.2,0,0.4,0,0.6,0.1c0.2,0.1,0.4,0.2,0.5,0.4c0.2,0.1,0.3,0.3,0.4,0.5
		c0.1,0.2,0.1,0.4,0.1,0.6c0,0.2,0,0.4-0.1,0.5C182.1,212.1,182,212.3,181.9,212.4z"/>
	<path class="st3" d="M197.2,215.2c-0.3,0-0.5-0.1-0.7-0.2c-0.2-0.1-0.4-0.3-0.6-0.5l-4.6-7.4c-0.5,0.5-1,1-1.5,1.5
		c-0.5,0.5-1,1-1.5,1.5v3.4c0,0.4-0.2,0.8-0.5,1.1c-0.3,0.3-0.7,0.5-1.1,0.5s-0.8-0.2-1.2-0.5c-0.3-0.3-0.5-0.7-0.5-1.1v-13.4
		c0-0.5,0.2-0.8,0.5-1.2c0.3-0.3,0.7-0.5,1.2-0.5s0.8,0.2,1.1,0.5c0.3,0.3,0.5,0.7,0.5,1.2v5.7l7-6.9c0.3-0.3,0.6-0.4,1-0.4
		c0.4,0,0.8,0.2,1.1,0.5c0.3,0.3,0.4,0.7,0.4,1.1c0,0.4-0.2,0.8-0.5,1.1l-3.8,3.8l4.9,8c0.1,0.3,0.2,0.5,0.2,0.8
		c0,0.4-0.1,0.8-0.4,1.1C197.9,215,197.6,215.2,197.2,215.2z"/>
	<path class="st3" d="M203.1,215.1c-0.5,0-0.8-0.2-1.2-0.5s-0.5-0.7-0.5-1.2c0-0.5,0.2-0.9,0.5-1.2c0.3-0.3,0.7-0.5,1.2-0.5
		c0.5,0,0.9,0.2,1.2,0.5c0.3,0.3,0.5,0.7,0.5,1.2c0,0.5-0.2,0.8-0.5,1.2S203.6,215.1,203.1,215.1z"/>
	<path class="st3" d="M222.2,215h-5.8c-0.5,0-0.8-0.2-1.1-0.5c-0.3-0.3-0.5-0.7-0.5-1.2v-12.9c0-0.5,0.2-0.8,0.5-1.1
		c0.3-0.3,0.7-0.5,1.1-0.5h5.6c1.7,0,3,0.4,3.9,1.1s1.4,1.7,1.4,2.8c0,0.8-0.2,1.6-0.6,2.2c-0.4,0.6-0.9,1.1-1.6,1.4
		c1,0.3,1.7,0.8,2.3,1.6c0.5,0.7,0.8,1.6,0.8,2.5c0,0.6-0.1,1.2-0.4,1.8c-0.3,0.6-0.6,1.1-1.2,1.5c-0.5,0.4-1.1,0.7-1.9,1
		C224,214.9,223.1,215,222.2,215z M222.3,201.8h-4.2v3.1h4.2c0.6,0,1-0.2,1.3-0.5c0.3-0.3,0.4-0.7,0.4-1.1c0-0.4-0.1-0.8-0.4-1.1
		C223.3,201.9,222.9,201.8,222.3,201.8z M222.6,207.9h-4.6v4.1h4.6c0.4,0,0.7-0.1,1-0.2s0.5-0.3,0.7-0.5s0.3-0.4,0.4-0.7
		c0.1-0.3,0.1-0.5,0.1-0.7c0-0.2,0-0.5-0.1-0.7c-0.1-0.2-0.2-0.4-0.4-0.6c-0.2-0.2-0.4-0.3-0.7-0.5C223.4,208,223,207.9,222.6,207.9
		z"/>
	<path class="st3" d="M241.4,215h-9.2c-0.5,0-0.8-0.2-1.2-0.5c-0.3-0.3-0.5-0.7-0.5-1.2v-12.9c0-0.5,0.2-0.8,0.5-1.1
		c0.3-0.3,0.7-0.5,1.2-0.5h8.9c0.4,0,0.8,0.1,1.1,0.4s0.5,0.6,0.5,1.1c0,0.4-0.2,0.8-0.5,1.1c-0.3,0.3-0.7,0.4-1.1,0.4h-7.2v3.5h4
		c0.4,0,0.8,0.1,1.1,0.4c0.3,0.3,0.4,0.6,0.4,1.1c0,0.4-0.1,0.8-0.4,1.1c-0.3,0.3-0.7,0.4-1.1,0.4h-4v3.6h7.6c0.4,0,0.8,0.2,1.1,0.5
		c0.3,0.3,0.5,0.7,0.5,1.1c0,0.4-0.2,0.8-0.5,1.1C242.2,214.8,241.8,215,241.4,215z"/>
	<path class="st3" d="M265.2,215.2c-0.3,0-0.6-0.1-0.8-0.2c-0.2-0.2-0.4-0.4-0.6-0.6l-1.3-3h-7l-1.4,3c-0.1,0.3-0.3,0.5-0.5,0.6
		c-0.2,0.2-0.5,0.2-0.8,0.2c-0.4,0-0.8-0.2-1.1-0.5c-0.3-0.3-0.4-0.7-0.4-1.1c0-0.2,0-0.4,0.1-0.6l6.2-13.6c0.1-0.2,0.3-0.5,0.5-0.6
		c0.2-0.2,0.5-0.3,0.8-0.3c0.3,0,0.6,0.1,0.8,0.2c0.3,0.1,0.5,0.4,0.6,0.7l6.2,13.6c0.1,0.2,0.1,0.4,0.1,0.6c0,0.4-0.1,0.8-0.4,1.1
		C265.9,215,265.6,215.2,265.2,215.2z M259,203.5l-2.3,5.1h4.6L259,203.5z"/>
	<path class="st3" d="M284.5,208.9h-4.4v4.7c0,0.5-0.2,0.8-0.5,1.1c-0.3,0.3-0.7,0.5-1.2,0.5c-0.5,0-0.8-0.2-1.1-0.5
		s-0.5-0.7-0.5-1.1v-13.2c0-0.5,0.2-0.8,0.5-1.1c0.3-0.3,0.7-0.5,1.1-0.5h6c1.1,0,2,0.1,2.7,0.4c0.7,0.3,1.4,0.7,1.8,1.1
		c0.5,0.5,0.8,1,1.1,1.6c0.2,0.6,0.3,1.2,0.3,1.9s-0.1,1.3-0.3,1.9c-0.2,0.6-0.6,1.1-1.1,1.6s-1.1,0.8-1.8,1.1
		C286.4,208.7,285.5,208.9,284.5,208.9z M284.9,201.8h-4.9v4.1h4.9c0.4,0,0.7-0.1,1-0.2c0.3-0.1,0.5-0.3,0.7-0.5
		c0.2-0.2,0.3-0.4,0.4-0.7c0.1-0.2,0.1-0.5,0.1-0.7c0-0.2,0-0.5-0.1-0.7c-0.1-0.2-0.2-0.5-0.4-0.7c-0.2-0.2-0.4-0.4-0.7-0.5
		C285.7,201.8,285.3,201.8,284.9,201.8z"/>
	<path class="st3" d="M303.5,215.2c-0.3,0-0.6-0.1-0.8-0.2c-0.2-0.2-0.4-0.4-0.6-0.6l-1.3-3h-7l-1.4,3c-0.1,0.3-0.3,0.5-0.5,0.6
		c-0.2,0.2-0.5,0.2-0.8,0.2c-0.4,0-0.8-0.2-1.1-0.5c-0.3-0.3-0.4-0.7-0.4-1.1c0-0.2,0-0.4,0.1-0.6l6.2-13.6c0.1-0.2,0.3-0.5,0.5-0.6
		c0.2-0.2,0.5-0.3,0.8-0.3c0.3,0,0.6,0.1,0.8,0.2c0.3,0.1,0.5,0.4,0.6,0.7l6.2,13.6c0.1,0.2,0.1,0.4,0.1,0.6c0,0.4-0.1,0.8-0.4,1.1
		C304.3,215,303.9,215.2,303.5,215.2z M297.3,203.5l-2.3,5.1h4.6L297.3,203.5z"/>
	<path class="st3" d="M318.5,207.9c0.1,0.2,0.3,0.6,0.6,1.2c0.3,0.6,0.6,1.1,0.9,1.7c0.3,0.6,0.6,1.2,0.8,1.7
		c0.2,0.5,0.4,0.9,0.4,1.1c0,0.4-0.2,0.8-0.5,1.1c-0.3,0.3-0.7,0.5-1.1,0.5c-0.3,0-0.6-0.1-0.8-0.2c-0.3-0.2-0.4-0.4-0.6-0.6
		c0-0.1-0.1-0.3-0.3-0.6c-0.2-0.3-0.3-0.7-0.6-1.1c-0.2-0.4-0.4-0.9-0.7-1.4s-0.5-0.9-0.7-1.3c-0.2-0.4-0.4-0.8-0.5-1
		c-0.1-0.3-0.2-0.4-0.2-0.4h-4.5v5.1c0,0.5-0.2,0.8-0.5,1.1c-0.3,0.3-0.7,0.5-1.2,0.5s-0.8-0.2-1.1-0.5c-0.3-0.3-0.5-0.7-0.5-1.1
		v-13.2c0-0.5,0.2-0.8,0.5-1.1c0.3-0.3,0.7-0.5,1.1-0.5h6c0.8,0,1.6,0.1,2.3,0.3c0.7,0.2,1.3,0.5,1.9,0.8c0.5,0.4,1,0.9,1.3,1.5
		c0.3,0.6,0.5,1.4,0.5,2.3c0,1-0.2,1.8-0.7,2.5S319.4,207.5,318.5,207.9z M315.7,201.8h-4.9v3.9h4.9c0.6,0,1.1-0.2,1.6-0.5
		s0.7-0.8,0.7-1.4c0-0.7-0.2-1.2-0.7-1.5S316.3,201.8,315.7,201.8z"/>
	<path class="st3" d="M337.6,215.2c-0.3,0-0.6-0.1-0.8-0.2c-0.2-0.2-0.4-0.4-0.6-0.6l-1.3-3h-7l-1.4,3c-0.1,0.3-0.3,0.5-0.5,0.6
		c-0.2,0.2-0.5,0.2-0.8,0.2c-0.4,0-0.8-0.2-1.1-0.5c-0.3-0.3-0.4-0.7-0.4-1.1c0-0.2,0-0.4,0.1-0.6l6.2-13.6c0.1-0.2,0.3-0.5,0.5-0.6
		c0.2-0.2,0.5-0.3,0.8-0.3c0.3,0,0.6,0.1,0.8,0.2s0.5,0.4,0.6,0.7l6.2,13.6c0.1,0.2,0.1,0.4,0.1,0.6c0,0.4-0.1,0.8-0.4,1.1
		C338.3,215,338,215.2,337.6,215.2z M331.3,203.5l-2.3,5.1h4.5L331.3,203.5z"/>
	<path class="st3" d="M355.2,212.4c-0.8,0.9-1.7,1.7-2.8,2.2c-1.1,0.5-2.3,0.8-3.5,0.8c-1.2,0-2.2-0.2-3.3-0.7c-1-0.4-1.9-1-2.6-1.8
		s-1.3-1.7-1.8-2.7s-0.6-2.1-0.6-3.3s0.2-2.2,0.6-3.3c0.4-1,1-1.9,1.8-2.7s1.6-1.4,2.6-1.8c1-0.4,2.1-0.7,3.3-0.7
		c1,0,1.9,0.2,2.9,0.5c1,0.3,1.8,0.8,2.5,1.5c0.2,0.2,0.3,0.4,0.4,0.5c0.1,0.2,0.1,0.4,0.1,0.6c0,0.4-0.2,0.8-0.5,1
		c-0.3,0.3-0.7,0.4-1.1,0.4c-0.3,0-0.6-0.1-0.8-0.3c-0.3-0.2-0.6-0.4-0.9-0.6s-0.7-0.4-1.1-0.6c-0.4-0.2-1-0.3-1.6-0.3
		c-0.8,0-1.5,0.1-2.1,0.4s-1.2,0.7-1.6,1.2c-0.4,0.5-0.8,1.1-1,1.7c-0.2,0.7-0.4,1.4-0.4,2.1s0.1,1.4,0.4,2.1c0.2,0.7,0.6,1.2,1,1.7
		c0.4,0.5,1,0.9,1.6,1.2s1.3,0.4,2.1,0.4s1.4-0.1,1.9-0.4c0.5-0.3,0.9-0.5,1.3-0.8c0.4-0.3,0.7-0.6,0.9-0.8c0.3-0.3,0.6-0.4,0.9-0.4
		c0.2,0,0.4,0,0.6,0.1c0.2,0.1,0.4,0.2,0.5,0.4s0.3,0.3,0.4,0.5c0.1,0.2,0.1,0.4,0.1,0.6c0,0.2,0,0.4-0.1,0.5
		C355.3,212.1,355.3,212.3,355.2,212.4z"/>
	<path class="st3" d="M370.9,215.2c-0.5,0-0.8-0.2-1.2-0.5c-0.3-0.3-0.5-0.7-0.5-1.1v-5.4h-7.3v5.4c0,0.5-0.2,0.8-0.5,1.1
		c-0.3,0.3-0.7,0.5-1.2,0.5s-0.8-0.2-1.2-0.5c-0.3-0.3-0.5-0.7-0.5-1.1v-13.4c0-0.5,0.2-0.8,0.5-1.2c0.3-0.3,0.7-0.5,1.2-0.5
		s0.8,0.2,1.2,0.5c0.3,0.3,0.5,0.7,0.5,1.2v4.9h7.3v-4.9c0-0.5,0.2-0.8,0.5-1.2c0.3-0.3,0.7-0.5,1.2-0.5c0.5,0,0.8,0.2,1.1,0.5
		c0.3,0.3,0.5,0.7,0.5,1.2v13.4c0,0.5-0.2,0.8-0.5,1.1C371.7,215,371.3,215.2,370.9,215.2z"/>
	<path class="st3" d="M382.8,215.3c-1.1,0-2-0.2-2.9-0.5c-0.9-0.3-1.6-0.8-2.2-1.4s-1.1-1.3-1.4-2.2c-0.3-0.8-0.5-1.8-0.5-2.9v-8.2
		c0-0.5,0.2-0.8,0.5-1.2c0.3-0.3,0.7-0.5,1.1-0.5c0.5,0,0.8,0.2,1.2,0.5c0.3,0.3,0.5,0.7,0.5,1.2v8.6c0,1.1,0.3,1.9,1,2.6
		c0.7,0.7,1.6,1,2.8,1c1.2,0,2.1-0.3,2.8-1c0.7-0.7,1-1.5,1-2.6v-8.6c0-0.5,0.2-0.8,0.5-1.2c0.3-0.3,0.7-0.5,1.1-0.5
		c0.5,0,0.8,0.2,1.2,0.5c0.3,0.3,0.5,0.7,0.5,1.2v8.2c0,1.1-0.2,2-0.5,2.9c-0.3,0.8-0.8,1.6-1.4,2.2s-1.4,1.1-2.2,1.4
		C384.9,215.1,383.9,215.3,382.8,215.3z"/>
	<path class="st3" d="M406.1,201.8h-4.5v11.7c0,0.5-0.2,0.8-0.5,1.1c-0.3,0.3-0.7,0.5-1.2,0.5s-0.8-0.2-1.2-0.5
		c-0.3-0.3-0.5-0.7-0.5-1.1v-11.7h-4.5c-0.4,0-0.8-0.1-1.1-0.4c-0.3-0.3-0.4-0.6-0.4-1.1c0-0.4,0.1-0.8,0.4-1.1s0.6-0.4,1.1-0.4
		h12.2c0.4,0,0.8,0.1,1.1,0.4c0.3,0.3,0.5,0.7,0.5,1.1c0,0.4-0.2,0.8-0.5,1.1C406.9,201.7,406.6,201.8,406.1,201.8z"/>
	<path class="st3" d="M421.6,215h-9.2c-0.5,0-0.8-0.2-1.2-0.5c-0.3-0.3-0.5-0.7-0.5-1.2v-12.9c0-0.5,0.2-0.8,0.5-1.1
		c0.3-0.3,0.7-0.5,1.2-0.5h8.9c0.4,0,0.8,0.1,1.1,0.4c0.3,0.3,0.5,0.6,0.5,1.1c0,0.4-0.2,0.8-0.5,1.1c-0.3,0.3-0.7,0.4-1.1,0.4H414
		v3.5h4c0.4,0,0.8,0.1,1.1,0.4s0.4,0.6,0.4,1.1c0,0.4-0.1,0.8-0.4,1.1c-0.3,0.3-0.6,0.4-1.1,0.4h-4v3.6h7.6c0.4,0,0.8,0.2,1.1,0.5
		c0.3,0.3,0.5,0.7,0.5,1.1c0,0.4-0.2,0.8-0.5,1.1C422.4,214.8,422.1,215,421.6,215z"/>
	<path class="st3" d="M440,215h-4.3c-0.5,0-0.8-0.2-1.2-0.5c-0.3-0.3-0.5-0.7-0.5-1.2v-12.9c0-0.5,0.2-0.8,0.5-1.1
		c0.3-0.3,0.7-0.5,1.2-0.5h4.3c1.2,0,2.4,0.2,3.4,0.6c1,0.4,1.9,1,2.6,1.7c0.7,0.7,1.3,1.6,1.6,2.6s0.6,2,0.6,3.2s-0.2,2.2-0.6,3.2
		c-0.4,1-0.9,1.8-1.6,2.6c-0.7,0.7-1.6,1.3-2.6,1.7C442.3,214.8,441.2,215,440,215z M439.8,201.8h-2.5V212h2.5
		c0.8,0,1.5-0.1,2.2-0.4c0.6-0.3,1.2-0.6,1.6-1.1c0.4-0.5,0.8-1,1-1.6c0.2-0.6,0.3-1.3,0.3-2.1c0-1.5-0.4-2.8-1.3-3.7
		C442.7,202.3,441.4,201.8,439.8,201.8z"/>
	<path class="st3" d="M461.5,215h-9.2c-0.5,0-0.8-0.2-1.2-0.5c-0.3-0.3-0.5-0.7-0.5-1.2v-12.9c0-0.5,0.2-0.8,0.5-1.1
		c0.3-0.3,0.7-0.5,1.2-0.5h8.9c0.4,0,0.8,0.1,1.1,0.4c0.3,0.3,0.5,0.6,0.5,1.1c0,0.4-0.2,0.8-0.5,1.1c-0.3,0.3-0.7,0.4-1.1,0.4H454
		v3.5h4c0.4,0,0.8,0.1,1.1,0.4s0.4,0.6,0.4,1.1c0,0.4-0.1,0.8-0.4,1.1c-0.3,0.3-0.6,0.4-1.1,0.4h-4v3.6h7.6c0.4,0,0.8,0.2,1.1,0.5
		c0.3,0.3,0.5,0.7,0.5,1.1c0,0.4-0.2,0.8-0.5,1.1C462.3,214.8,462,215,461.5,215z"/>
	<path class="st3" d="M480.4,200.7l-5.9,13.6c-0.1,0.3-0.3,0.5-0.5,0.6c-0.2,0.2-0.5,0.2-0.8,0.2c-0.7,0-1.1-0.3-1.4-0.9l-5.9-13.6
		c-0.1-0.2-0.1-0.4-0.1-0.6c0-0.4,0.1-0.8,0.4-1.1c0.3-0.3,0.6-0.5,1-0.5c0.3,0,0.6,0.1,0.8,0.2s0.5,0.4,0.6,0.7l4.5,10.9l4.5-10.9
		c0.1-0.3,0.3-0.5,0.5-0.7s0.5-0.2,0.8-0.2c0.4,0,0.8,0.2,1.1,0.5c0.3,0.3,0.4,0.7,0.4,1.1C480.5,200.3,480.5,200.5,480.4,200.7z"/>
	<path class="st3" d="M494.3,215h-9.2c-0.5,0-0.8-0.2-1.2-0.5c-0.3-0.3-0.5-0.7-0.5-1.2v-12.9c0-0.5,0.2-0.8,0.5-1.1
		c0.3-0.3,0.7-0.5,1.2-0.5h8.9c0.4,0,0.8,0.1,1.1,0.4c0.3,0.3,0.5,0.6,0.5,1.1c0,0.4-0.2,0.8-0.5,1.1c-0.3,0.3-0.7,0.4-1.1,0.4h-7.2
		v3.5h4c0.4,0,0.8,0.1,1.1,0.4s0.4,0.6,0.4,1.1c0,0.4-0.1,0.8-0.4,1.1c-0.3,0.3-0.6,0.4-1.1,0.4h-4v3.6h7.6c0.4,0,0.8,0.2,1.1,0.5
		c0.3,0.3,0.5,0.7,0.5,1.1c0,0.4-0.2,0.8-0.5,1.1C495.1,214.8,494.7,215,494.3,215z"/>
	<path class="st3" d="M509.5,215h-8.9c-0.5,0-0.8-0.2-1.1-0.5c-0.3-0.3-0.5-0.7-0.5-1.2v-13.2c0-0.5,0.2-0.8,0.5-1.2
		c0.3-0.3,0.7-0.5,1.1-0.5c0.5,0,0.8,0.2,1.2,0.5c0.3,0.3,0.5,0.7,0.5,1.2v11.8h7.3c0.4,0,0.8,0.1,1.1,0.4c0.3,0.3,0.5,0.7,0.5,1.1
		c0,0.4-0.2,0.8-0.5,1.1C510.3,214.8,509.9,215,509.5,215z"/>
	<path class="st3" d="M521.6,215.3c-1.2,0-2.3-0.2-3.3-0.7c-1-0.4-1.9-1-2.6-1.8c-0.8-0.8-1.3-1.6-1.8-2.7c-0.4-1-0.6-2.1-0.6-3.3
		c0-1.2,0.2-2.3,0.6-3.3c0.4-1,1-1.9,1.8-2.7c0.8-0.8,1.6-1.3,2.6-1.8s2.1-0.7,3.3-0.7c1.2,0,2.3,0.2,3.3,0.7s1.9,1,2.6,1.8
		c0.7,0.8,1.3,1.6,1.8,2.7c0.4,1,0.6,2.1,0.6,3.3c0,1.2-0.2,2.3-0.6,3.3c-0.4,1-1,1.9-1.8,2.7s-1.6,1.4-2.6,1.8
		C523.9,215.1,522.8,215.3,521.6,215.3z M521.6,201.5c-0.8,0-1.5,0.1-2.1,0.4s-1.2,0.7-1.6,1.1c-0.4,0.5-0.8,1.1-1,1.7
		c-0.2,0.7-0.4,1.4-0.4,2.1s0.1,1.4,0.4,2.1c0.2,0.7,0.6,1.2,1,1.7c0.4,0.5,1,0.9,1.6,1.2s1.3,0.4,2.1,0.4s1.5-0.1,2.1-0.4
		s1.2-0.7,1.6-1.2c0.4-0.5,0.8-1.1,1-1.7c0.2-0.7,0.4-1.4,0.4-2.1s-0.1-1.4-0.4-2.1c-0.2-0.7-0.6-1.2-1-1.7c-0.4-0.5-1-0.9-1.6-1.1
		S522.4,201.5,521.6,201.5z"/>
	<path class="st3" d="M540.6,208.9h-4.4v4.7c0,0.5-0.2,0.8-0.5,1.1c-0.3,0.3-0.7,0.5-1.2,0.5c-0.5,0-0.8-0.2-1.1-0.5
		c-0.3-0.3-0.5-0.7-0.5-1.1v-13.2c0-0.5,0.2-0.8,0.5-1.1c0.3-0.3,0.7-0.5,1.1-0.5h6c1.1,0,2,0.1,2.7,0.4c0.7,0.3,1.4,0.7,1.8,1.1
		c0.5,0.5,0.8,1,1.1,1.6c0.2,0.6,0.3,1.2,0.3,1.9s-0.1,1.3-0.3,1.9c-0.2,0.6-0.6,1.1-1.1,1.6s-1.1,0.8-1.8,1.1
		C542.6,208.7,541.7,208.9,540.6,208.9z M541.1,201.8h-4.9v4.1h4.9c0.4,0,0.7-0.1,1-0.2c0.3-0.1,0.5-0.3,0.7-0.5
		c0.2-0.2,0.3-0.4,0.4-0.7c0.1-0.2,0.1-0.5,0.1-0.7c0-0.2,0-0.5-0.1-0.7c-0.1-0.2-0.2-0.5-0.4-0.7c-0.2-0.2-0.4-0.4-0.7-0.5
		S541.5,201.8,541.1,201.8z"/>
	<path class="st3" d="M560.5,215h-9.2c-0.5,0-0.8-0.2-1.2-0.5c-0.3-0.3-0.5-0.7-0.5-1.2v-12.9c0-0.5,0.2-0.8,0.5-1.1
		c0.3-0.3,0.7-0.5,1.2-0.5h8.9c0.4,0,0.8,0.1,1.1,0.4c0.3,0.3,0.5,0.6,0.5,1.1c0,0.4-0.2,0.8-0.5,1.1c-0.3,0.3-0.7,0.4-1.1,0.4h-7.2
		v3.5h4c0.4,0,0.8,0.1,1.1,0.4s0.4,0.6,0.4,1.1c0,0.4-0.1,0.8-0.4,1.1c-0.3,0.3-0.6,0.4-1.1,0.4h-4v3.6h7.6c0.4,0,0.8,0.2,1.1,0.5
		c0.3,0.3,0.5,0.7,0.5,1.1c0,0.4-0.2,0.8-0.5,1.1C561.3,214.8,560.9,215,560.5,215z"/>
	<path class="st3" d="M576,207.9c0.1,0.2,0.3,0.6,0.6,1.2c0.3,0.6,0.6,1.1,0.9,1.7c0.3,0.6,0.6,1.2,0.8,1.7c0.2,0.5,0.4,0.9,0.4,1.1
		c0,0.4-0.2,0.8-0.5,1.1c-0.3,0.3-0.7,0.5-1.1,0.5c-0.3,0-0.6-0.1-0.8-0.2c-0.3-0.2-0.4-0.4-0.6-0.6c0-0.1-0.1-0.3-0.3-0.6
		c-0.2-0.3-0.3-0.7-0.6-1.1c-0.2-0.4-0.4-0.9-0.7-1.4s-0.5-0.9-0.7-1.3s-0.4-0.8-0.5-1c-0.1-0.3-0.2-0.4-0.2-0.4h-4.5v5.1
		c0,0.5-0.2,0.8-0.5,1.1c-0.3,0.3-0.7,0.5-1.2,0.5c-0.5,0-0.8-0.2-1.1-0.5c-0.3-0.3-0.5-0.7-0.5-1.1v-13.2c0-0.5,0.2-0.8,0.5-1.1
		c0.3-0.3,0.7-0.5,1.1-0.5h6c0.8,0,1.6,0.1,2.3,0.3c0.7,0.2,1.3,0.5,1.9,0.8c0.5,0.4,1,0.9,1.3,1.5c0.3,0.6,0.5,1.4,0.5,2.3
		c0,1-0.2,1.8-0.7,2.5S577,207.5,576,207.9z M573.2,201.8h-4.9v3.9h4.9c0.6,0,1.1-0.2,1.6-0.5s0.7-0.8,0.7-1.4
		c0-0.7-0.2-1.2-0.7-1.5S573.8,201.8,573.2,201.8z"/>
	<path class="st3" d="M583.8,215.1c-0.5,0-0.8-0.2-1.2-0.5s-0.5-0.7-0.5-1.2c0-0.5,0.2-0.9,0.5-1.2c0.3-0.3,0.7-0.5,1.2-0.5
		c0.5,0,0.9,0.2,1.2,0.5c0.3,0.3,0.5,0.7,0.5,1.2c0,0.5-0.2,0.8-0.5,1.2C584.6,215,584.2,215.1,583.8,215.1z"/>
</g>
</svg>
